<svg width="364" height="116" viewBox="0 0 364 116" fill="none" xmlns="http://www.w3.org/2000/svg">
<ellipse cx="71.4403" cy="15.5741" rx="14.1463" ry="14.1463" stroke="#667085" stroke-width="1.41463"/>
<ellipse cx="71.4403" cy="100.428" rx="14.1463" ry="14.1463" stroke="#667085" stroke-width="1.41463"/>
<ellipse cx="14.8563" cy="72.1463" rx="14.1463" ry="14.1463" stroke="#667085" stroke-width="1.41463"/>
<ellipse cx="99.7342" cy="72.1463" rx="14.1463" ry="14.1463" stroke="#667085" stroke-width="1.41463"/>
<ellipse cx="136.513" cy="57.9862" rx="14.1463" ry="14.1463" stroke="#667085" stroke-width="1.41463"/>
<ellipse cx="221.391" cy="57.9862" rx="14.1463" ry="14.1463" stroke="#667085" stroke-width="1.41463"/>
<ellipse cx="178.955" cy="15.5741" rx="14.1463" ry="14.1463" stroke="#667085" stroke-width="1.41463"/>
<ellipse cx="178.955" cy="100.428" rx="14.1463" ry="14.1463" stroke="#667085" stroke-width="1.41463"/>
<path d="M0.709961 72.1463C0.709961 64.3335 7.04349 58 14.8563 58H99.7343C107.547 58 113.881 64.3335 113.881 72.1463C113.881 79.9591 107.547 86.2927 99.7343 86.2927H14.8563C7.04349 86.2927 0.709961 79.9591 0.709961 72.1463Z" stroke="#667085" stroke-width="1.41463"/>
<path d="M71.4403 114.572C63.6275 114.572 57.2939 108.239 57.2939 100.426L57.2939 15.548C57.2939 7.73517 63.6275 1.40164 71.4403 1.40164C79.2531 1.40164 85.5866 7.73517 85.5866 15.548L85.5866 100.426C85.5866 108.239 79.2531 114.572 71.4403 114.572Z" stroke="#667085" stroke-width="1.41463"/>
<path d="M5.0562 82.044C-0.468294 76.5195 -0.468292 67.5625 5.0562 62.038L61.3364 5.75783C66.8609 0.233334 75.8179 0.233321 81.3424 5.75781C86.8669 11.2823 86.8668 20.2393 81.3424 25.7638L25.0621 82.044C19.5377 87.5685 10.5807 87.5685 5.0562 82.044Z" stroke="#667085" stroke-width="1.41463"/>
<ellipse cx="320.421" cy="15.5741" rx="14.1463" ry="14.1463" stroke="#667085" stroke-width="1.41463"/>
<ellipse cx="320.421" cy="100.428" rx="14.1463" ry="14.1463" stroke="#667085" stroke-width="1.41463"/>
<ellipse cx="263.833" cy="72.1463" rx="14.1463" ry="14.1463" stroke="#667085" stroke-width="1.41463"/>
<ellipse cx="348.709" cy="72.1463" rx="14.1463" ry="14.1463" stroke="#667085" stroke-width="1.41463"/>
<path d="M249.687 72.1463C249.687 64.3335 256.02 58 263.833 58H348.711C356.524 58 362.857 64.3335 362.857 72.1463C362.857 79.9591 356.524 86.2927 348.711 86.2927H263.833C256.02 86.2927 249.687 79.9591 249.687 72.1463Z" stroke="#667085" stroke-width="1.41463"/>
<path d="M320.421 114.572C312.608 114.572 306.274 108.239 306.274 100.426L306.274 15.548C306.274 7.73517 312.608 1.40164 320.421 1.40164C328.234 1.40164 334.567 7.73517 334.567 15.548L334.567 100.426C334.567 108.239 328.234 114.572 320.421 114.572Z" stroke="#667085" stroke-width="1.41463"/>
<path d="M254.03 82.044C248.506 76.5195 248.506 67.5625 254.03 62.038L310.311 5.75783C315.835 0.233334 324.792 0.233321 330.316 5.75781C335.841 11.2823 335.841 20.2393 330.316 25.7638L274.036 82.044C268.512 87.5685 259.555 87.5685 254.03 82.044Z" stroke="#667085" stroke-width="1.41463"/>
<ellipse cx="178.952" cy="58.013" rx="56.5854" ry="56.5853" stroke="#667085" stroke-width="1.41463"/>
<ellipse cx="178.952" cy="58.0114" rx="28.2927" ry="28.2927" stroke="#667085" stroke-width="1.41463"/>
<line x1="0.00292975" y1="0.720417" x2="362.857" y2="0.720449" stroke="#667085" stroke-width="1.41463"/>
<line x1="0.00390619" y1="115.293" x2="362.858" y2="115.293" stroke="#667085" stroke-width="1.41463"/>
</svg>
