<svg width="18" height="17" viewBox="0 0 18 17" fill="none" xmlns="http://www.w3.org/2000/svg">
<path d="M1.5 6.5H16.5" stroke="#475467" stroke-width="1.5" stroke-linecap="round" stroke-linejoin="round"/>
<path d="M15 3.5H3C2.60218 3.5 2.22064 3.65804 1.93934 3.93934C1.65804 4.22064 1.5 4.60218 1.5 5V14C1.5 14.3978 1.65804 14.7794 1.93934 15.0607C2.22064 15.342 2.60218 15.5 3 15.5H15C15.3978 15.5 15.7794 15.342 16.0607 15.0607C16.342 14.7794 16.5 14.3978 16.5 14V5C16.5 4.60218 16.342 4.22064 16.0607 3.93934C15.7794 3.65804 15.3978 3.5 15 3.5Z" stroke="#475467" stroke-width="1.5" stroke-linecap="round" stroke-linejoin="round"/>
<path d="M5.5 1.5V3.5" stroke="#475467" stroke-width="1.5" stroke-linecap="round" stroke-linejoin="round"/>
<path d="M12.5 1.5V3.5" stroke="#475467" stroke-width="1.5" stroke-linecap="round" stroke-linejoin="round"/>
</svg>
