<svg width="20" height="20" viewBox="0 0 20 20" fill="none" xmlns="http://www.w3.org/2000/svg">
<g clip-path="url(#clip0_1007_16055)">
<path d="M4.16699 12.5003C3.39042 12.5003 3.00214 12.5003 2.69585 12.3735C2.28747 12.2043 1.96302 11.8798 1.79386 11.4715C1.66699 11.1652 1.66699 10.7769 1.66699 10.0003V4.33366C1.66699 3.40024 1.66699 2.93353 1.84865 2.57701C2.00844 2.2634 2.2634 2.00844 2.57701 1.84865C2.93353 1.66699 3.40024 1.66699 4.33366 1.66699H10.0003C10.7769 1.66699 11.1652 1.66699 11.4715 1.79386C11.8798 1.96302 12.2043 2.28747 12.3735 2.69585C12.5003 3.00214 12.5003 3.39042 12.5003 4.16699M10.167 18.3337H15.667C16.6004 18.3337 17.0671 18.3337 17.4236 18.152C17.7372 17.9922 17.9922 17.7372 18.152 17.4236C18.3337 17.0671 18.3337 16.6004 18.3337 15.667V10.167C18.3337 9.23357 18.3337 8.76686 18.152 8.41034C17.9922 8.09674 17.7372 7.84177 17.4236 7.68198C17.0671 7.50033 16.6004 7.50033 15.667 7.50033H10.167C9.23357 7.50033 8.76686 7.50033 8.41034 7.68198C8.09674 7.84177 7.84177 8.09674 7.68198 8.41034C7.50033 8.76686 7.50033 9.23357 7.50033 10.167V15.667C7.50033 16.6004 7.50033 17.0671 7.68198 17.4236C7.84177 17.7372 8.09674 17.9922 8.41034 18.152C8.76686 18.3337 9.23357 18.3337 10.167 18.3337Z" stroke="#344054" stroke-width="1.66667" stroke-linecap="round" stroke-linejoin="round"/>
</g>
<defs>
<clipPath id="clip0_1007_16055">
<rect width="20" height="20" fill="white"/>
</clipPath>
</defs>
</svg>
