<svg width="26" height="22" viewBox="0 0 26 22" fill="none" xmlns="http://www.w3.org/2000/svg">
<path d="M1.33301 5.16602L10.8587 11.834C11.6301 12.374 12.0158 12.644 12.4353 12.7485C12.8059 12.8409 13.1935 12.8409 13.564 12.7485C13.9836 12.644 14.3692 12.374 15.1406 11.834L24.6663 5.16602M6.93301 20.3327H19.0663C21.0265 20.3327 22.0066 20.3327 22.7553 19.9512C23.4139 19.6156 23.9493 19.0802 24.2849 18.4217C24.6663 17.673 24.6663 16.6929 24.6663 14.7327V7.26602C24.6663 5.30583 24.6663 4.32574 24.2849 3.57705C23.9493 2.91848 23.4139 2.38305 22.7553 2.04749C22.0066 1.66602 21.0265 1.66602 19.0663 1.66602H6.93301C4.97282 1.66602 3.99273 1.66602 3.24404 2.04749C2.58547 2.38305 2.05004 2.91848 1.71448 3.57705C1.33301 4.32574 1.33301 5.30583 1.33301 7.26602V14.7327C1.33301 16.6929 1.33301 17.673 1.71448 18.4217C2.05004 19.0802 2.58547 19.6156 3.24404 19.9512C3.99273 20.3327 4.97282 20.3327 6.93301 20.3327Z" stroke="#344054" stroke-width="2" stroke-linecap="round" stroke-linejoin="round"/>
</svg>
