<svg width="28" height="27" viewBox="0 0 28 27" fill="none" xmlns="http://www.w3.org/2000/svg">
<g filter="url(#filter0_d_255_25922)">
<path d="M14.0022 8.33056L10.2267 1.39C10.352 1.25705 10.4962 1.16985 10.6405 1.11124C9.5271 1.49293 9.01624 2.79527 9.01624 2.79527L2.11899 15.4713C2.02194 15.8687 1.99498 16.2275 2.00711 16.5434H9.53519L14.0022 8.33056Z" fill="#34A853"/>
<path d="M14.002 8.33056L18.4689 16.5434H25.997C26.0091 16.2275 25.9822 15.8687 25.8851 15.4713L18.9879 2.79527C18.9879 2.79527 18.4757 1.49293 17.3636 1.11124C17.5065 1.16985 17.6521 1.25705 17.7775 1.39L14.002 8.33056Z" fill="#FBBC05"/>
<path d="M14.0021 8.33086L17.7776 1.3903C17.6522 1.25735 17.5066 1.17015 17.3637 1.11153C17.1993 1.05578 17.0227 1.01861 16.8313 1.00861H16.6318H11.3723H11.1728C10.9827 1.01718 10.8048 1.05435 10.6404 1.11153C10.4975 1.17015 10.3519 1.25735 10.2266 1.3903L14.0021 8.33086Z" fill="#188038"/>
<path d="M9.53658 16.5435L5.80422 23.4054C5.80422 23.4054 5.68021 23.3425 5.51172 23.2124C6.04145 23.637 6.55635 23.7271 6.55635 23.7271H21.2149C22.0236 23.7271 22.1921 23.4054 22.1921 23.4054C22.1948 23.404 22.1961 23.4026 22.1988 23.4011L18.4692 16.5435H9.53658Z" fill="#4285F4"/>
<path d="M9.53735 16.5435H2.00928C2.04702 17.4756 2.43522 18.0202 2.43522 18.0202L2.71828 18.532C2.7385 18.562 2.75063 18.5792 2.75063 18.5792L3.36662 19.7057L4.74958 22.2132C4.79001 22.3147 4.83719 22.4076 4.88707 22.4962C4.90594 22.5262 4.92346 22.5591 4.94368 22.5877C4.94907 22.5963 4.95446 22.6049 4.95985 22.6134C5.13103 22.865 5.32244 23.0595 5.51384 23.2124C5.68233 23.344 5.80634 23.4054 5.80634 23.4054L9.53735 16.5435Z" fill="#1967D2"/>
<path d="M18.4692 16.5435H25.9973C25.9596 17.4756 25.5714 18.0202 25.5714 18.0202L25.2883 18.532C25.2681 18.562 25.256 18.5792 25.256 18.5792L24.64 19.7057L23.257 22.2132C23.2166 22.3147 23.1694 22.4076 23.1195 22.4962C23.1007 22.5262 23.0831 22.5591 23.0629 22.5877C23.0575 22.5963 23.0521 22.6049 23.0467 22.6134C22.8755 22.865 22.6841 23.0595 22.4927 23.2124C22.3243 23.344 22.2003 23.4054 22.2003 23.4054L18.4692 16.5435Z" fill="#EA4335"/>
</g>
<defs>
<filter id="filter0_d_255_25922" x="0" y="-1" width="28" height="28" filterUnits="userSpaceOnUse" color-interpolation-filters="sRGB">
<feFlood flood-opacity="0" result="BackgroundImageFix"/>
<feColorMatrix in="SourceAlpha" type="matrix" values="0 0 0 0 0 0 0 0 0 0 0 0 0 0 0 0 0 0 127 0" result="hardAlpha"/>
<feOffset dy="1"/>
<feGaussianBlur stdDeviation="1"/>
<feColorMatrix type="matrix" values="0 0 0 0 0.0627451 0 0 0 0 0.0941176 0 0 0 0 0.156863 0 0 0 0.05 0"/>
<feBlend mode="normal" in2="BackgroundImageFix" result="effect1_dropShadow_255_25922"/>
<feBlend mode="normal" in="SourceGraphic" in2="effect1_dropShadow_255_25922" result="shape"/>
</filter>
</defs>
</svg>
