<svg width="77" height="32" viewBox="0 0 77 32" fill="none" xmlns="http://www.w3.org/2000/svg">
<rect width="77" height="32" rx="4" fill="#E2E2E2"/>
<path d="M24.1641 10.3359V21H22.1499V10.3359H24.1641ZM33.9272 19.418V21H26.4419V19.418H33.9272ZM33.7881 11.5151L27.2695 21H25.8853V19.7915L32.4331 10.3359H33.7881V11.5151ZM33.0703 10.3359V11.9253H25.9072V10.3359H33.0703ZM36.3003 10.3359H38.0435L40.9585 18.3633L43.8662 10.3359H45.6167L41.6543 21H40.2554L36.3003 10.3359ZM35.4214 10.3359H37.1279L37.4355 17.7114V21H35.4214V10.3359ZM44.7817 10.3359H46.4956V21H44.4814V17.7114L44.7817 10.3359ZM55.6143 19.418V21H49.9453V19.418H55.6143ZM50.5605 10.3359V21H48.5464V10.3359H50.5605ZM54.8745 14.7378V16.2832H49.9453V14.7378H54.8745ZM55.5923 10.3359V11.9253H49.9453V10.3359H55.5923Z" fill="#101828"/>
</svg>
