<svg width="16" height="16" viewBox="0 0 16 16" fill="none" xmlns="http://www.w3.org/2000/svg">
<g id="lock 1">
<g id="Group">
<path id="Vector" d="M12 6H10V4C10 3.46957 9.78929 2.96086 9.41421 2.58579C9.03914 2.21071 8.53043 2 8 2C7.46957 2 6.96086 2.21071 6.58579 2.58579C6.21071 2.96086 6 3.46957 6 4V6H4V4C4 2.93913 4.42143 1.92172 5.17157 1.17157C5.92172 0.421427 6.93913 0 8 0C9.06087 0 10.0783 0.421427 10.8284 1.17157C11.5786 1.92172 12 2.93913 12 4V6Z" fill="#475467"/>
<path id="Vector_2" d="M14 7H2C1.73478 7 1.48043 7.10536 1.29289 7.29289C1.10536 7.48043 1 7.73478 1 8V15C1 15.2652 1.10536 15.5196 1.29289 15.7071C1.48043 15.8946 1.73478 16 2 16H14C14.2652 16 14.5196 15.8946 14.7071 15.7071C14.8946 15.5196 15 15.2652 15 15V8C15 7.73478 14.8946 7.48043 14.7071 7.29289C14.5196 7.10536 14.2652 7 14 7ZM8 13C7.70333 13 7.41332 12.912 7.16664 12.7472C6.91997 12.5824 6.72771 12.3481 6.61418 12.074C6.50065 11.7999 6.47094 11.4983 6.52882 11.2074C6.5867 10.9164 6.72956 10.6491 6.93934 10.4393C7.14912 10.2296 7.41639 10.0867 7.70736 10.0288C7.99834 9.97094 8.29994 10.0006 8.57403 10.1142C8.84811 10.2277 9.08238 10.42 9.2472 10.6666C9.41203 10.9133 9.5 11.2033 9.5 11.5C9.5 11.8978 9.34196 12.2794 9.06066 12.5607C8.77936 12.842 8.39782 13 8 13Z" fill="#475467"/>
</g>
</g>
</svg>
