<svg width="220" height="178" viewBox="0 0 220 178" fill="none" xmlns="http://www.w3.org/2000/svg">
<circle cx="110" cy="88" r="80" fill="#FECDD6"/>
<circle cx="26" cy="28" r="8" fill="#FFE4E8"/>
<circle cx="198" cy="134" r="6" fill="#FFE4E8"/>
<circle cx="25" cy="146" r="10" fill="#FFE4E8"/>
<circle cx="210" cy="54" r="10" fill="#FFE4E8"/>
<circle cx="191" cy="19" r="7" fill="#FFE4E8"/>
<g filter="url(#filter0_dd_1474_58371)">
<path d="M110 54.9529L116.912 52.0578L110.001 55.002V137.432L173.69 110.743V28.2767L174 28.1466L173.69 28.009V27.8705L173.53 27.9384L110.503 0L46 27.4765L46.3053 27.6076L46 109.74L110 137.383L110 54.9529Z" fill="#F9FAFB"/>
<path d="M110 54.9529V137.383L46 109.739L46.3053 27.6074L110 54.9529Z" fill="url(#paint0_linear_1474_58371)"/>
<path d="M110.001 55.0026V137.433L173.69 110.744V27.8711L110.001 55.0026Z" fill="url(#paint1_linear_1474_58371)"/>
<path d="M110 54.9529L174 28.1466L110.503 0L46 27.4765L110 54.9529Z" fill="#FFE4E8"/>
<path d="M70.126 17.1988L133.882 44.9494L134.461 65.1721L152.299 57.8116L151.76 37.4613L86.1177 10.3867L70.126 17.1988Z" fill="#FECDD6"/>
</g>
<g filter="url(#filter1_b_1474_58371)">
<rect x="90" y="112" width="40" height="40" rx="7.85715" fill="#C01048"/>
<g clip-path="url(#clip0_1474_58371)">
<path d="M100.835 141.173C100.835 136.571 104.566 132.84 109.168 132.84H110.835C115.437 132.84 119.168 136.571 119.168 141.173" stroke="white" stroke-width="1.42857" stroke-miterlimit="10" stroke-linecap="square"/>
<path d="M110.002 132.84C112.763 132.84 115.002 130.601 115.002 127.84C115.002 125.078 112.763 122.84 110.002 122.84C107.241 122.84 105.002 125.078 105.002 127.84C105.002 130.601 107.241 132.84 110.002 132.84Z" stroke="white" stroke-width="1.42857" stroke-miterlimit="10" stroke-linecap="square"/>
</g>
</g>
<defs>
<filter id="filter0_dd_1474_58371" x="26" y="0" width="168" height="177.434" filterUnits="userSpaceOnUse" color-interpolation-filters="sRGB">
<feFlood flood-opacity="0" result="BackgroundImageFix"/>
<feColorMatrix in="SourceAlpha" type="matrix" values="0 0 0 0 0 0 0 0 0 0 0 0 0 0 0 0 0 0 127 0" result="hardAlpha"/>
<feMorphology radius="4" operator="erode" in="SourceAlpha" result="effect1_dropShadow_1474_58371"/>
<feOffset dy="8"/>
<feGaussianBlur stdDeviation="4"/>
<feColorMatrix type="matrix" values="0 0 0 0 0.0627451 0 0 0 0 0.0941176 0 0 0 0 0.156863 0 0 0 0.03 0"/>
<feBlend mode="normal" in2="BackgroundImageFix" result="effect1_dropShadow_1474_58371"/>
<feColorMatrix in="SourceAlpha" type="matrix" values="0 0 0 0 0 0 0 0 0 0 0 0 0 0 0 0 0 0 127 0" result="hardAlpha"/>
<feMorphology radius="4" operator="erode" in="SourceAlpha" result="effect2_dropShadow_1474_58371"/>
<feOffset dy="20"/>
<feGaussianBlur stdDeviation="12"/>
<feColorMatrix type="matrix" values="0 0 0 0 0.0627451 0 0 0 0 0.0941176 0 0 0 0 0.156863 0 0 0 0.08 0"/>
<feBlend mode="normal" in2="effect1_dropShadow_1474_58371" result="effect2_dropShadow_1474_58371"/>
<feBlend mode="normal" in="SourceGraphic" in2="effect2_dropShadow_1474_58371" result="shape"/>
</filter>
<filter id="filter1_b_1474_58371" x="84.2857" y="106.286" width="51.4286" height="51.4286" filterUnits="userSpaceOnUse" color-interpolation-filters="sRGB">
<feFlood flood-opacity="0" result="BackgroundImageFix"/>
<feGaussianBlur in="BackgroundImageFix" stdDeviation="2.85714"/>
<feComposite in2="SourceAlpha" operator="in" result="effect1_backgroundBlur_1474_58371"/>
<feBlend mode="normal" in="SourceGraphic" in2="effect1_backgroundBlur_1474_58371" result="shape"/>
</filter>
<linearGradient id="paint0_linear_1474_58371" x1="46" y1="110.154" x2="71.2754" y2="41.7012" gradientUnits="userSpaceOnUse">
<stop stop-color="#FFF1F3"/>
<stop offset="1" stop-color="#FFE4E8"/>
</linearGradient>
<linearGradient id="paint1_linear_1474_58371" x1="110" y1="56.616" x2="182.166" y2="70.9836" gradientUnits="userSpaceOnUse">
<stop stop-color="#FFF1F3"/>
<stop offset="1" stop-color="#FFE4E8"/>
</linearGradient>
<clipPath id="clip0_1474_58371">
<rect width="20" height="20" fill="white" transform="translate(100 122)"/>
</clipPath>
</defs>
</svg>
