<svg width="375" height="389" viewBox="0 0 375 389" fill="none" xmlns="http://www.w3.org/2000/svg">
<mask id="mask0_1474_58368" style="mask-type:alpha" maskUnits="userSpaceOnUse" x="-52" y="-91" width="480" height="480">
<rect width="480" height="480" transform="translate(-52 -91)" fill="url(#paint0_radial_1474_58368)"/>
</mask>
<g mask="url(#mask0_1474_58368)">
<path d="M-40.5 -81C-40.5 -80.1716 -41.1716 -79.5 -42 -79.5C-42.8284 -79.5 -43.5 -80.1716 -43.5 -81C-43.5 -81.8284 -42.8284 -82.5 -42 -82.5C-41.1716 -82.5 -40.5 -81.8284 -40.5 -81Z" fill="#D0D5DD"/>
<path d="M-17.5 -81C-17.5 -80.1716 -18.1716 -79.5 -19 -79.5C-19.8284 -79.5 -20.5 -80.1716 -20.5 -81C-20.5 -81.8284 -19.8284 -82.5 -19 -82.5C-18.1716 -82.5 -17.5 -81.8284 -17.5 -81Z" fill="#D0D5DD"/>
<path d="M5.5 -81C5.5 -80.1716 4.82843 -79.5 4 -79.5C3.17157 -79.5 2.5 -80.1716 2.5 -81C2.5 -81.8284 3.17157 -82.5 4 -82.5C4.82843 -82.5 5.5 -81.8284 5.5 -81Z" fill="#D0D5DD"/>
<path d="M28.5 -81C28.5 -80.1716 27.8284 -79.5 27 -79.5C26.1716 -79.5 25.5 -80.1716 25.5 -81C25.5 -81.8284 26.1716 -82.5 27 -82.5C27.8284 -82.5 28.5 -81.8284 28.5 -81Z" fill="#D0D5DD"/>
<path d="M51.5 -81C51.5 -80.1716 50.8284 -79.5 50 -79.5C49.1716 -79.5 48.5 -80.1716 48.5 -81C48.5 -81.8284 49.1716 -82.5 50 -82.5C50.8284 -82.5 51.5 -81.8284 51.5 -81Z" fill="#D0D5DD"/>
<path d="M74.5 -81C74.5 -80.1716 73.8284 -79.5 73 -79.5C72.1716 -79.5 71.5 -80.1716 71.5 -81C71.5 -81.8284 72.1716 -82.5 73 -82.5C73.8284 -82.5 74.5 -81.8284 74.5 -81Z" fill="#D0D5DD"/>
<path d="M97.5 -81C97.5 -80.1716 96.8284 -79.5 96 -79.5C95.1716 -79.5 94.5 -80.1716 94.5 -81C94.5 -81.8284 95.1716 -82.5 96 -82.5C96.8284 -82.5 97.5 -81.8284 97.5 -81Z" fill="#D0D5DD"/>
<path d="M120.5 -81C120.5 -80.1716 119.828 -79.5 119 -79.5C118.172 -79.5 117.5 -80.1716 117.5 -81C117.5 -81.8284 118.172 -82.5 119 -82.5C119.828 -82.5 120.5 -81.8284 120.5 -81Z" fill="#D0D5DD"/>
<path d="M143.5 -81C143.5 -80.1716 142.828 -79.5 142 -79.5C141.172 -79.5 140.5 -80.1716 140.5 -81C140.5 -81.8284 141.172 -82.5 142 -82.5C142.828 -82.5 143.5 -81.8284 143.5 -81Z" fill="#D0D5DD"/>
<path d="M166.5 -81C166.5 -80.1716 165.828 -79.5 165 -79.5C164.172 -79.5 163.5 -80.1716 163.5 -81C163.5 -81.8284 164.172 -82.5 165 -82.5C165.828 -82.5 166.5 -81.8284 166.5 -81Z" fill="#D0D5DD"/>
<path d="M189.5 -81C189.5 -80.1716 188.828 -79.5 188 -79.5C187.172 -79.5 186.5 -80.1716 186.5 -81C186.5 -81.8284 187.172 -82.5 188 -82.5C188.828 -82.5 189.5 -81.8284 189.5 -81Z" fill="#D0D5DD"/>
<path d="M212.5 -81C212.5 -80.1716 211.828 -79.5 211 -79.5C210.172 -79.5 209.5 -80.1716 209.5 -81C209.5 -81.8284 210.172 -82.5 211 -82.5C211.828 -82.5 212.5 -81.8284 212.5 -81Z" fill="#D0D5DD"/>
<path d="M235.5 -81C235.5 -80.1716 234.828 -79.5 234 -79.5C233.172 -79.5 232.5 -80.1716 232.5 -81C232.5 -81.8284 233.172 -82.5 234 -82.5C234.828 -82.5 235.5 -81.8284 235.5 -81Z" fill="#D0D5DD"/>
<path d="M258.5 -81C258.5 -80.1716 257.828 -79.5 257 -79.5C256.172 -79.5 255.5 -80.1716 255.5 -81C255.5 -81.8284 256.172 -82.5 257 -82.5C257.828 -82.5 258.5 -81.8284 258.5 -81Z" fill="#D0D5DD"/>
<path d="M281.5 -81C281.5 -80.1716 280.828 -79.5 280 -79.5C279.172 -79.5 278.5 -80.1716 278.5 -81C278.5 -81.8284 279.172 -82.5 280 -82.5C280.828 -82.5 281.5 -81.8284 281.5 -81Z" fill="#D0D5DD"/>
<path d="M304.5 -81C304.5 -80.1716 303.828 -79.5 303 -79.5C302.172 -79.5 301.5 -80.1716 301.5 -81C301.5 -81.8284 302.172 -82.5 303 -82.5C303.828 -82.5 304.5 -81.8284 304.5 -81Z" fill="#D0D5DD"/>
<path d="M327.5 -81C327.5 -80.1716 326.828 -79.5 326 -79.5C325.172 -79.5 324.5 -80.1716 324.5 -81C324.5 -81.8284 325.172 -82.5 326 -82.5C326.828 -82.5 327.5 -81.8284 327.5 -81Z" fill="#D0D5DD"/>
<path d="M350.5 -81C350.5 -80.1716 349.828 -79.5 349 -79.5C348.172 -79.5 347.5 -80.1716 347.5 -81C347.5 -81.8284 348.172 -82.5 349 -82.5C349.828 -82.5 350.5 -81.8284 350.5 -81Z" fill="#D0D5DD"/>
<path d="M373.5 -81C373.5 -80.1716 372.828 -79.5 372 -79.5C371.172 -79.5 370.5 -80.1716 370.5 -81C370.5 -81.8284 371.172 -82.5 372 -82.5C372.828 -82.5 373.5 -81.8284 373.5 -81Z" fill="#D0D5DD"/>
<path d="M396.5 -81C396.5 -80.1716 395.828 -79.5 395 -79.5C394.172 -79.5 393.5 -80.1716 393.5 -81C393.5 -81.8284 394.172 -82.5 395 -82.5C395.828 -82.5 396.5 -81.8284 396.5 -81Z" fill="#D0D5DD"/>
<path d="M419.5 -81C419.5 -80.1716 418.828 -79.5 418 -79.5C417.172 -79.5 416.5 -80.1716 416.5 -81C416.5 -81.8284 417.172 -82.5 418 -82.5C418.828 -82.5 419.5 -81.8284 419.5 -81Z" fill="#D0D5DD"/>
<path d="M-40.5 -58C-40.5 -57.1716 -41.1716 -56.5 -42 -56.5C-42.8284 -56.5 -43.5 -57.1716 -43.5 -58C-43.5 -58.8284 -42.8284 -59.5 -42 -59.5C-41.1716 -59.5 -40.5 -58.8284 -40.5 -58Z" fill="#D0D5DD"/>
<path d="M-17.5 -58C-17.5 -57.1716 -18.1716 -56.5 -19 -56.5C-19.8284 -56.5 -20.5 -57.1716 -20.5 -58C-20.5 -58.8284 -19.8284 -59.5 -19 -59.5C-18.1716 -59.5 -17.5 -58.8284 -17.5 -58Z" fill="#D0D5DD"/>
<path d="M5.5 -58C5.5 -57.1716 4.82843 -56.5 4 -56.5C3.17157 -56.5 2.5 -57.1716 2.5 -58C2.5 -58.8284 3.17157 -59.5 4 -59.5C4.82843 -59.5 5.5 -58.8284 5.5 -58Z" fill="#D0D5DD"/>
<path d="M28.5 -58C28.5 -57.1716 27.8284 -56.5 27 -56.5C26.1716 -56.5 25.5 -57.1716 25.5 -58C25.5 -58.8284 26.1716 -59.5 27 -59.5C27.8284 -59.5 28.5 -58.8284 28.5 -58Z" fill="#D0D5DD"/>
<path d="M51.5 -58C51.5 -57.1716 50.8284 -56.5 50 -56.5C49.1716 -56.5 48.5 -57.1716 48.5 -58C48.5 -58.8284 49.1716 -59.5 50 -59.5C50.8284 -59.5 51.5 -58.8284 51.5 -58Z" fill="#D0D5DD"/>
<path d="M74.5 -58C74.5 -57.1716 73.8284 -56.5 73 -56.5C72.1716 -56.5 71.5 -57.1716 71.5 -58C71.5 -58.8284 72.1716 -59.5 73 -59.5C73.8284 -59.5 74.5 -58.8284 74.5 -58Z" fill="#D0D5DD"/>
<path d="M97.5 -58C97.5 -57.1716 96.8284 -56.5 96 -56.5C95.1716 -56.5 94.5 -57.1716 94.5 -58C94.5 -58.8284 95.1716 -59.5 96 -59.5C96.8284 -59.5 97.5 -58.8284 97.5 -58Z" fill="#D0D5DD"/>
<path d="M120.5 -58C120.5 -57.1716 119.828 -56.5 119 -56.5C118.172 -56.5 117.5 -57.1716 117.5 -58C117.5 -58.8284 118.172 -59.5 119 -59.5C119.828 -59.5 120.5 -58.8284 120.5 -58Z" fill="#D0D5DD"/>
<path d="M143.5 -58C143.5 -57.1716 142.828 -56.5 142 -56.5C141.172 -56.5 140.5 -57.1716 140.5 -58C140.5 -58.8284 141.172 -59.5 142 -59.5C142.828 -59.5 143.5 -58.8284 143.5 -58Z" fill="#D0D5DD"/>
<path d="M166.5 -58C166.5 -57.1716 165.828 -56.5 165 -56.5C164.172 -56.5 163.5 -57.1716 163.5 -58C163.5 -58.8284 164.172 -59.5 165 -59.5C165.828 -59.5 166.5 -58.8284 166.5 -58Z" fill="#D0D5DD"/>
<path d="M189.5 -58C189.5 -57.1716 188.828 -56.5 188 -56.5C187.172 -56.5 186.5 -57.1716 186.5 -58C186.5 -58.8284 187.172 -59.5 188 -59.5C188.828 -59.5 189.5 -58.8284 189.5 -58Z" fill="#D0D5DD"/>
<path d="M212.5 -58C212.5 -57.1716 211.828 -56.5 211 -56.5C210.172 -56.5 209.5 -57.1716 209.5 -58C209.5 -58.8284 210.172 -59.5 211 -59.5C211.828 -59.5 212.5 -58.8284 212.5 -58Z" fill="#D0D5DD"/>
<path d="M235.5 -58C235.5 -57.1716 234.828 -56.5 234 -56.5C233.172 -56.5 232.5 -57.1716 232.5 -58C232.5 -58.8284 233.172 -59.5 234 -59.5C234.828 -59.5 235.5 -58.8284 235.5 -58Z" fill="#D0D5DD"/>
<path d="M258.5 -58C258.5 -57.1716 257.828 -56.5 257 -56.5C256.172 -56.5 255.5 -57.1716 255.5 -58C255.5 -58.8284 256.172 -59.5 257 -59.5C257.828 -59.5 258.5 -58.8284 258.5 -58Z" fill="#D0D5DD"/>
<path d="M281.5 -58C281.5 -57.1716 280.828 -56.5 280 -56.5C279.172 -56.5 278.5 -57.1716 278.5 -58C278.5 -58.8284 279.172 -59.5 280 -59.5C280.828 -59.5 281.5 -58.8284 281.5 -58Z" fill="#D0D5DD"/>
<path d="M304.5 -58C304.5 -57.1716 303.828 -56.5 303 -56.5C302.172 -56.5 301.5 -57.1716 301.5 -58C301.5 -58.8284 302.172 -59.5 303 -59.5C303.828 -59.5 304.5 -58.8284 304.5 -58Z" fill="#D0D5DD"/>
<path d="M327.5 -58C327.5 -57.1716 326.828 -56.5 326 -56.5C325.172 -56.5 324.5 -57.1716 324.5 -58C324.5 -58.8284 325.172 -59.5 326 -59.5C326.828 -59.5 327.5 -58.8284 327.5 -58Z" fill="#D0D5DD"/>
<path d="M350.5 -58C350.5 -57.1716 349.828 -56.5 349 -56.5C348.172 -56.5 347.5 -57.1716 347.5 -58C347.5 -58.8284 348.172 -59.5 349 -59.5C349.828 -59.5 350.5 -58.8284 350.5 -58Z" fill="#D0D5DD"/>
<path d="M373.5 -58C373.5 -57.1716 372.828 -56.5 372 -56.5C371.172 -56.5 370.5 -57.1716 370.5 -58C370.5 -58.8284 371.172 -59.5 372 -59.5C372.828 -59.5 373.5 -58.8284 373.5 -58Z" fill="#D0D5DD"/>
<path d="M396.5 -58C396.5 -57.1716 395.828 -56.5 395 -56.5C394.172 -56.5 393.5 -57.1716 393.5 -58C393.5 -58.8284 394.172 -59.5 395 -59.5C395.828 -59.5 396.5 -58.8284 396.5 -58Z" fill="#D0D5DD"/>
<path d="M419.5 -58C419.5 -57.1716 418.828 -56.5 418 -56.5C417.172 -56.5 416.5 -57.1716 416.5 -58C416.5 -58.8284 417.172 -59.5 418 -59.5C418.828 -59.5 419.5 -58.8284 419.5 -58Z" fill="#D0D5DD"/>
<path d="M-40.5 -35C-40.5 -34.1716 -41.1716 -33.5 -42 -33.5C-42.8284 -33.5 -43.5 -34.1716 -43.5 -35C-43.5 -35.8284 -42.8284 -36.5 -42 -36.5C-41.1716 -36.5 -40.5 -35.8284 -40.5 -35Z" fill="#D0D5DD"/>
<path d="M-17.5 -35C-17.5 -34.1716 -18.1716 -33.5 -19 -33.5C-19.8284 -33.5 -20.5 -34.1716 -20.5 -35C-20.5 -35.8284 -19.8284 -36.5 -19 -36.5C-18.1716 -36.5 -17.5 -35.8284 -17.5 -35Z" fill="#D0D5DD"/>
<path d="M5.5 -35C5.5 -34.1716 4.82843 -33.5 4 -33.5C3.17157 -33.5 2.5 -34.1716 2.5 -35C2.5 -35.8284 3.17157 -36.5 4 -36.5C4.82843 -36.5 5.5 -35.8284 5.5 -35Z" fill="#D0D5DD"/>
<path d="M28.5 -35C28.5 -34.1716 27.8284 -33.5 27 -33.5C26.1716 -33.5 25.5 -34.1716 25.5 -35C25.5 -35.8284 26.1716 -36.5 27 -36.5C27.8284 -36.5 28.5 -35.8284 28.5 -35Z" fill="#D0D5DD"/>
<path d="M51.5 -35C51.5 -34.1716 50.8284 -33.5 50 -33.5C49.1716 -33.5 48.5 -34.1716 48.5 -35C48.5 -35.8284 49.1716 -36.5 50 -36.5C50.8284 -36.5 51.5 -35.8284 51.5 -35Z" fill="#D0D5DD"/>
<path d="M74.5 -35C74.5 -34.1716 73.8284 -33.5 73 -33.5C72.1716 -33.5 71.5 -34.1716 71.5 -35C71.5 -35.8284 72.1716 -36.5 73 -36.5C73.8284 -36.5 74.5 -35.8284 74.5 -35Z" fill="#D0D5DD"/>
<path d="M97.5 -35C97.5 -34.1716 96.8284 -33.5 96 -33.5C95.1716 -33.5 94.5 -34.1716 94.5 -35C94.5 -35.8284 95.1716 -36.5 96 -36.5C96.8284 -36.5 97.5 -35.8284 97.5 -35Z" fill="#D0D5DD"/>
<path d="M120.5 -35C120.5 -34.1716 119.828 -33.5 119 -33.5C118.172 -33.5 117.5 -34.1716 117.5 -35C117.5 -35.8284 118.172 -36.5 119 -36.5C119.828 -36.5 120.5 -35.8284 120.5 -35Z" fill="#D0D5DD"/>
<path d="M143.5 -35C143.5 -34.1716 142.828 -33.5 142 -33.5C141.172 -33.5 140.5 -34.1716 140.5 -35C140.5 -35.8284 141.172 -36.5 142 -36.5C142.828 -36.5 143.5 -35.8284 143.5 -35Z" fill="#D0D5DD"/>
<path d="M166.5 -35C166.5 -34.1716 165.828 -33.5 165 -33.5C164.172 -33.5 163.5 -34.1716 163.5 -35C163.5 -35.8284 164.172 -36.5 165 -36.5C165.828 -36.5 166.5 -35.8284 166.5 -35Z" fill="#D0D5DD"/>
<path d="M189.5 -35C189.5 -34.1716 188.828 -33.5 188 -33.5C187.172 -33.5 186.5 -34.1716 186.5 -35C186.5 -35.8284 187.172 -36.5 188 -36.5C188.828 -36.5 189.5 -35.8284 189.5 -35Z" fill="#D0D5DD"/>
<path d="M212.5 -35C212.5 -34.1716 211.828 -33.5 211 -33.5C210.172 -33.5 209.5 -34.1716 209.5 -35C209.5 -35.8284 210.172 -36.5 211 -36.5C211.828 -36.5 212.5 -35.8284 212.5 -35Z" fill="#D0D5DD"/>
<path d="M235.5 -35C235.5 -34.1716 234.828 -33.5 234 -33.5C233.172 -33.5 232.5 -34.1716 232.5 -35C232.5 -35.8284 233.172 -36.5 234 -36.5C234.828 -36.5 235.5 -35.8284 235.5 -35Z" fill="#D0D5DD"/>
<path d="M258.5 -35C258.5 -34.1716 257.828 -33.5 257 -33.5C256.172 -33.5 255.5 -34.1716 255.5 -35C255.5 -35.8284 256.172 -36.5 257 -36.5C257.828 -36.5 258.5 -35.8284 258.5 -35Z" fill="#D0D5DD"/>
<path d="M281.5 -35C281.5 -34.1716 280.828 -33.5 280 -33.5C279.172 -33.5 278.5 -34.1716 278.5 -35C278.5 -35.8284 279.172 -36.5 280 -36.5C280.828 -36.5 281.5 -35.8284 281.5 -35Z" fill="#D0D5DD"/>
<path d="M304.5 -35C304.5 -34.1716 303.828 -33.5 303 -33.5C302.172 -33.5 301.5 -34.1716 301.5 -35C301.5 -35.8284 302.172 -36.5 303 -36.5C303.828 -36.5 304.5 -35.8284 304.5 -35Z" fill="#D0D5DD"/>
<path d="M327.5 -35C327.5 -34.1716 326.828 -33.5 326 -33.5C325.172 -33.5 324.5 -34.1716 324.5 -35C324.5 -35.8284 325.172 -36.5 326 -36.5C326.828 -36.5 327.5 -35.8284 327.5 -35Z" fill="#D0D5DD"/>
<path d="M350.5 -35C350.5 -34.1716 349.828 -33.5 349 -33.5C348.172 -33.5 347.5 -34.1716 347.5 -35C347.5 -35.8284 348.172 -36.5 349 -36.5C349.828 -36.5 350.5 -35.8284 350.5 -35Z" fill="#D0D5DD"/>
<path d="M373.5 -35C373.5 -34.1716 372.828 -33.5 372 -33.5C371.172 -33.5 370.5 -34.1716 370.5 -35C370.5 -35.8284 371.172 -36.5 372 -36.5C372.828 -36.5 373.5 -35.8284 373.5 -35Z" fill="#D0D5DD"/>
<path d="M396.5 -35C396.5 -34.1716 395.828 -33.5 395 -33.5C394.172 -33.5 393.5 -34.1716 393.5 -35C393.5 -35.8284 394.172 -36.5 395 -36.5C395.828 -36.5 396.5 -35.8284 396.5 -35Z" fill="#D0D5DD"/>
<path d="M419.5 -35C419.5 -34.1716 418.828 -33.5 418 -33.5C417.172 -33.5 416.5 -34.1716 416.5 -35C416.5 -35.8284 417.172 -36.5 418 -36.5C418.828 -36.5 419.5 -35.8284 419.5 -35Z" fill="#D0D5DD"/>
<path d="M-40.5 -12C-40.5 -11.1716 -41.1716 -10.5 -42 -10.5C-42.8284 -10.5 -43.5 -11.1716 -43.5 -12C-43.5 -12.8284 -42.8284 -13.5 -42 -13.5C-41.1716 -13.5 -40.5 -12.8284 -40.5 -12Z" fill="#D0D5DD"/>
<path d="M-17.5 -12C-17.5 -11.1716 -18.1716 -10.5 -19 -10.5C-19.8284 -10.5 -20.5 -11.1716 -20.5 -12C-20.5 -12.8284 -19.8284 -13.5 -19 -13.5C-18.1716 -13.5 -17.5 -12.8284 -17.5 -12Z" fill="#D0D5DD"/>
<path d="M5.5 -12C5.5 -11.1716 4.82843 -10.5 4 -10.5C3.17157 -10.5 2.5 -11.1716 2.5 -12C2.5 -12.8284 3.17157 -13.5 4 -13.5C4.82843 -13.5 5.5 -12.8284 5.5 -12Z" fill="#D0D5DD"/>
<path d="M28.5 -12C28.5 -11.1716 27.8284 -10.5 27 -10.5C26.1716 -10.5 25.5 -11.1716 25.5 -12C25.5 -12.8284 26.1716 -13.5 27 -13.5C27.8284 -13.5 28.5 -12.8284 28.5 -12Z" fill="#D0D5DD"/>
<path d="M51.5 -12C51.5 -11.1716 50.8284 -10.5 50 -10.5C49.1716 -10.5 48.5 -11.1716 48.5 -12C48.5 -12.8284 49.1716 -13.5 50 -13.5C50.8284 -13.5 51.5 -12.8284 51.5 -12Z" fill="#D0D5DD"/>
<path d="M74.5 -12C74.5 -11.1716 73.8284 -10.5 73 -10.5C72.1716 -10.5 71.5 -11.1716 71.5 -12C71.5 -12.8284 72.1716 -13.5 73 -13.5C73.8284 -13.5 74.5 -12.8284 74.5 -12Z" fill="#D0D5DD"/>
<path d="M97.5 -12C97.5 -11.1716 96.8284 -10.5 96 -10.5C95.1716 -10.5 94.5 -11.1716 94.5 -12C94.5 -12.8284 95.1716 -13.5 96 -13.5C96.8284 -13.5 97.5 -12.8284 97.5 -12Z" fill="#D0D5DD"/>
<path d="M120.5 -12C120.5 -11.1716 119.828 -10.5 119 -10.5C118.172 -10.5 117.5 -11.1716 117.5 -12C117.5 -12.8284 118.172 -13.5 119 -13.5C119.828 -13.5 120.5 -12.8284 120.5 -12Z" fill="#D0D5DD"/>
<path d="M143.5 -12C143.5 -11.1716 142.828 -10.5 142 -10.5C141.172 -10.5 140.5 -11.1716 140.5 -12C140.5 -12.8284 141.172 -13.5 142 -13.5C142.828 -13.5 143.5 -12.8284 143.5 -12Z" fill="#D0D5DD"/>
<path d="M166.5 -12C166.5 -11.1716 165.828 -10.5 165 -10.5C164.172 -10.5 163.5 -11.1716 163.5 -12C163.5 -12.8284 164.172 -13.5 165 -13.5C165.828 -13.5 166.5 -12.8284 166.5 -12Z" fill="#D0D5DD"/>
<path d="M189.5 -12C189.5 -11.1716 188.828 -10.5 188 -10.5C187.172 -10.5 186.5 -11.1716 186.5 -12C186.5 -12.8284 187.172 -13.5 188 -13.5C188.828 -13.5 189.5 -12.8284 189.5 -12Z" fill="#D0D5DD"/>
<path d="M212.5 -12C212.5 -11.1716 211.828 -10.5 211 -10.5C210.172 -10.5 209.5 -11.1716 209.5 -12C209.5 -12.8284 210.172 -13.5 211 -13.5C211.828 -13.5 212.5 -12.8284 212.5 -12Z" fill="#D0D5DD"/>
<path d="M235.5 -12C235.5 -11.1716 234.828 -10.5 234 -10.5C233.172 -10.5 232.5 -11.1716 232.5 -12C232.5 -12.8284 233.172 -13.5 234 -13.5C234.828 -13.5 235.5 -12.8284 235.5 -12Z" fill="#D0D5DD"/>
<path d="M258.5 -12C258.5 -11.1716 257.828 -10.5 257 -10.5C256.172 -10.5 255.5 -11.1716 255.5 -12C255.5 -12.8284 256.172 -13.5 257 -13.5C257.828 -13.5 258.5 -12.8284 258.5 -12Z" fill="#D0D5DD"/>
<path d="M281.5 -12C281.5 -11.1716 280.828 -10.5 280 -10.5C279.172 -10.5 278.5 -11.1716 278.5 -12C278.5 -12.8284 279.172 -13.5 280 -13.5C280.828 -13.5 281.5 -12.8284 281.5 -12Z" fill="#D0D5DD"/>
<path d="M304.5 -12C304.5 -11.1716 303.828 -10.5 303 -10.5C302.172 -10.5 301.5 -11.1716 301.5 -12C301.5 -12.8284 302.172 -13.5 303 -13.5C303.828 -13.5 304.5 -12.8284 304.5 -12Z" fill="#D0D5DD"/>
<path d="M327.5 -12C327.5 -11.1716 326.828 -10.5 326 -10.5C325.172 -10.5 324.5 -11.1716 324.5 -12C324.5 -12.8284 325.172 -13.5 326 -13.5C326.828 -13.5 327.5 -12.8284 327.5 -12Z" fill="#D0D5DD"/>
<path d="M350.5 -12C350.5 -11.1716 349.828 -10.5 349 -10.5C348.172 -10.5 347.5 -11.1716 347.5 -12C347.5 -12.8284 348.172 -13.5 349 -13.5C349.828 -13.5 350.5 -12.8284 350.5 -12Z" fill="#D0D5DD"/>
<path d="M373.5 -12C373.5 -11.1716 372.828 -10.5 372 -10.5C371.172 -10.5 370.5 -11.1716 370.5 -12C370.5 -12.8284 371.172 -13.5 372 -13.5C372.828 -13.5 373.5 -12.8284 373.5 -12Z" fill="#D0D5DD"/>
<path d="M396.5 -12C396.5 -11.1716 395.828 -10.5 395 -10.5C394.172 -10.5 393.5 -11.1716 393.5 -12C393.5 -12.8284 394.172 -13.5 395 -13.5C395.828 -13.5 396.5 -12.8284 396.5 -12Z" fill="#D0D5DD"/>
<path d="M419.5 -12C419.5 -11.1716 418.828 -10.5 418 -10.5C417.172 -10.5 416.5 -11.1716 416.5 -12C416.5 -12.8284 417.172 -13.5 418 -13.5C418.828 -13.5 419.5 -12.8284 419.5 -12Z" fill="#D0D5DD"/>
<path d="M-40.5 11C-40.5 11.8284 -41.1716 12.5 -42 12.5C-42.8284 12.5 -43.5 11.8284 -43.5 11C-43.5 10.1716 -42.8284 9.5 -42 9.5C-41.1716 9.5 -40.5 10.1716 -40.5 11Z" fill="#D0D5DD"/>
<path d="M-17.5 11C-17.5 11.8284 -18.1716 12.5 -19 12.5C-19.8284 12.5 -20.5 11.8284 -20.5 11C-20.5 10.1716 -19.8284 9.5 -19 9.5C-18.1716 9.5 -17.5 10.1716 -17.5 11Z" fill="#D0D5DD"/>
<path d="M5.5 11C5.5 11.8284 4.82843 12.5 4 12.5C3.17157 12.5 2.5 11.8284 2.5 11C2.5 10.1716 3.17157 9.5 4 9.5C4.82843 9.5 5.5 10.1716 5.5 11Z" fill="#D0D5DD"/>
<path d="M28.5 11C28.5 11.8284 27.8284 12.5 27 12.5C26.1716 12.5 25.5 11.8284 25.5 11C25.5 10.1716 26.1716 9.5 27 9.5C27.8284 9.5 28.5 10.1716 28.5 11Z" fill="#D0D5DD"/>
<path d="M51.5 11C51.5 11.8284 50.8284 12.5 50 12.5C49.1716 12.5 48.5 11.8284 48.5 11C48.5 10.1716 49.1716 9.5 50 9.5C50.8284 9.5 51.5 10.1716 51.5 11Z" fill="#D0D5DD"/>
<path d="M74.5 11C74.5 11.8284 73.8284 12.5 73 12.5C72.1716 12.5 71.5 11.8284 71.5 11C71.5 10.1716 72.1716 9.5 73 9.5C73.8284 9.5 74.5 10.1716 74.5 11Z" fill="#D0D5DD"/>
<path d="M97.5 11C97.5 11.8284 96.8284 12.5 96 12.5C95.1716 12.5 94.5 11.8284 94.5 11C94.5 10.1716 95.1716 9.5 96 9.5C96.8284 9.5 97.5 10.1716 97.5 11Z" fill="#D0D5DD"/>
<path d="M120.5 11C120.5 11.8284 119.828 12.5 119 12.5C118.172 12.5 117.5 11.8284 117.5 11C117.5 10.1716 118.172 9.5 119 9.5C119.828 9.5 120.5 10.1716 120.5 11Z" fill="#D0D5DD"/>
<path d="M143.5 11C143.5 11.8284 142.828 12.5 142 12.5C141.172 12.5 140.5 11.8284 140.5 11C140.5 10.1716 141.172 9.5 142 9.5C142.828 9.5 143.5 10.1716 143.5 11Z" fill="#D0D5DD"/>
<path d="M166.5 11C166.5 11.8284 165.828 12.5 165 12.5C164.172 12.5 163.5 11.8284 163.5 11C163.5 10.1716 164.172 9.5 165 9.5C165.828 9.5 166.5 10.1716 166.5 11Z" fill="#D0D5DD"/>
<path d="M189.5 11C189.5 11.8284 188.828 12.5 188 12.5C187.172 12.5 186.5 11.8284 186.5 11C186.5 10.1716 187.172 9.5 188 9.5C188.828 9.5 189.5 10.1716 189.5 11Z" fill="#D0D5DD"/>
<path d="M212.5 11C212.5 11.8284 211.828 12.5 211 12.5C210.172 12.5 209.5 11.8284 209.5 11C209.5 10.1716 210.172 9.5 211 9.5C211.828 9.5 212.5 10.1716 212.5 11Z" fill="#D0D5DD"/>
<path d="M235.5 11C235.5 11.8284 234.828 12.5 234 12.5C233.172 12.5 232.5 11.8284 232.5 11C232.5 10.1716 233.172 9.5 234 9.5C234.828 9.5 235.5 10.1716 235.5 11Z" fill="#D0D5DD"/>
<path d="M258.5 11C258.5 11.8284 257.828 12.5 257 12.5C256.172 12.5 255.5 11.8284 255.5 11C255.5 10.1716 256.172 9.5 257 9.5C257.828 9.5 258.5 10.1716 258.5 11Z" fill="#D0D5DD"/>
<path d="M281.5 11C281.5 11.8284 280.828 12.5 280 12.5C279.172 12.5 278.5 11.8284 278.5 11C278.5 10.1716 279.172 9.5 280 9.5C280.828 9.5 281.5 10.1716 281.5 11Z" fill="#D0D5DD"/>
<path d="M304.5 11C304.5 11.8284 303.828 12.5 303 12.5C302.172 12.5 301.5 11.8284 301.5 11C301.5 10.1716 302.172 9.5 303 9.5C303.828 9.5 304.5 10.1716 304.5 11Z" fill="#D0D5DD"/>
<path d="M327.5 11C327.5 11.8284 326.828 12.5 326 12.5C325.172 12.5 324.5 11.8284 324.5 11C324.5 10.1716 325.172 9.5 326 9.5C326.828 9.5 327.5 10.1716 327.5 11Z" fill="#D0D5DD"/>
<path d="M350.5 11C350.5 11.8284 349.828 12.5 349 12.5C348.172 12.5 347.5 11.8284 347.5 11C347.5 10.1716 348.172 9.5 349 9.5C349.828 9.5 350.5 10.1716 350.5 11Z" fill="#D0D5DD"/>
<path d="M373.5 11C373.5 11.8284 372.828 12.5 372 12.5C371.172 12.5 370.5 11.8284 370.5 11C370.5 10.1716 371.172 9.5 372 9.5C372.828 9.5 373.5 10.1716 373.5 11Z" fill="#D0D5DD"/>
<path d="M396.5 11C396.5 11.8284 395.828 12.5 395 12.5C394.172 12.5 393.5 11.8284 393.5 11C393.5 10.1716 394.172 9.5 395 9.5C395.828 9.5 396.5 10.1716 396.5 11Z" fill="#D0D5DD"/>
<path d="M419.5 11C419.5 11.8284 418.828 12.5 418 12.5C417.172 12.5 416.5 11.8284 416.5 11C416.5 10.1716 417.172 9.5 418 9.5C418.828 9.5 419.5 10.1716 419.5 11Z" fill="#D0D5DD"/>
<path d="M-40.5 34C-40.5 34.8284 -41.1716 35.5 -42 35.5C-42.8284 35.5 -43.5 34.8284 -43.5 34C-43.5 33.1716 -42.8284 32.5 -42 32.5C-41.1716 32.5 -40.5 33.1716 -40.5 34Z" fill="#D0D5DD"/>
<path d="M-17.5 34C-17.5 34.8284 -18.1716 35.5 -19 35.5C-19.8284 35.5 -20.5 34.8284 -20.5 34C-20.5 33.1716 -19.8284 32.5 -19 32.5C-18.1716 32.5 -17.5 33.1716 -17.5 34Z" fill="#D0D5DD"/>
<path d="M5.5 34C5.5 34.8284 4.82843 35.5 4 35.5C3.17157 35.5 2.5 34.8284 2.5 34C2.5 33.1716 3.17157 32.5 4 32.5C4.82843 32.5 5.5 33.1716 5.5 34Z" fill="#D0D5DD"/>
<path d="M28.5 34C28.5 34.8284 27.8284 35.5 27 35.5C26.1716 35.5 25.5 34.8284 25.5 34C25.5 33.1716 26.1716 32.5 27 32.5C27.8284 32.5 28.5 33.1716 28.5 34Z" fill="#D0D5DD"/>
<path d="M51.5 34C51.5 34.8284 50.8284 35.5 50 35.5C49.1716 35.5 48.5 34.8284 48.5 34C48.5 33.1716 49.1716 32.5 50 32.5C50.8284 32.5 51.5 33.1716 51.5 34Z" fill="#D0D5DD"/>
<path d="M74.5 34C74.5 34.8284 73.8284 35.5 73 35.5C72.1716 35.5 71.5 34.8284 71.5 34C71.5 33.1716 72.1716 32.5 73 32.5C73.8284 32.5 74.5 33.1716 74.5 34Z" fill="#D0D5DD"/>
<path d="M97.5 34C97.5 34.8284 96.8284 35.5 96 35.5C95.1716 35.5 94.5 34.8284 94.5 34C94.5 33.1716 95.1716 32.5 96 32.5C96.8284 32.5 97.5 33.1716 97.5 34Z" fill="#D0D5DD"/>
<path d="M120.5 34C120.5 34.8284 119.828 35.5 119 35.5C118.172 35.5 117.5 34.8284 117.5 34C117.5 33.1716 118.172 32.5 119 32.5C119.828 32.5 120.5 33.1716 120.5 34Z" fill="#D0D5DD"/>
<path d="M143.5 34C143.5 34.8284 142.828 35.5 142 35.5C141.172 35.5 140.5 34.8284 140.5 34C140.5 33.1716 141.172 32.5 142 32.5C142.828 32.5 143.5 33.1716 143.5 34Z" fill="#D0D5DD"/>
<path d="M166.5 34C166.5 34.8284 165.828 35.5 165 35.5C164.172 35.5 163.5 34.8284 163.5 34C163.5 33.1716 164.172 32.5 165 32.5C165.828 32.5 166.5 33.1716 166.5 34Z" fill="#D0D5DD"/>
<path d="M189.5 34C189.5 34.8284 188.828 35.5 188 35.5C187.172 35.5 186.5 34.8284 186.5 34C186.5 33.1716 187.172 32.5 188 32.5C188.828 32.5 189.5 33.1716 189.5 34Z" fill="#D0D5DD"/>
<path d="M212.5 34C212.5 34.8284 211.828 35.5 211 35.5C210.172 35.5 209.5 34.8284 209.5 34C209.5 33.1716 210.172 32.5 211 32.5C211.828 32.5 212.5 33.1716 212.5 34Z" fill="#D0D5DD"/>
<path d="M235.5 34C235.5 34.8284 234.828 35.5 234 35.5C233.172 35.5 232.5 34.8284 232.5 34C232.5 33.1716 233.172 32.5 234 32.5C234.828 32.5 235.5 33.1716 235.5 34Z" fill="#D0D5DD"/>
<path d="M258.5 34C258.5 34.8284 257.828 35.5 257 35.5C256.172 35.5 255.5 34.8284 255.5 34C255.5 33.1716 256.172 32.5 257 32.5C257.828 32.5 258.5 33.1716 258.5 34Z" fill="#D0D5DD"/>
<path d="M281.5 34C281.5 34.8284 280.828 35.5 280 35.5C279.172 35.5 278.5 34.8284 278.5 34C278.5 33.1716 279.172 32.5 280 32.5C280.828 32.5 281.5 33.1716 281.5 34Z" fill="#D0D5DD"/>
<path d="M304.5 34C304.5 34.8284 303.828 35.5 303 35.5C302.172 35.5 301.5 34.8284 301.5 34C301.5 33.1716 302.172 32.5 303 32.5C303.828 32.5 304.5 33.1716 304.5 34Z" fill="#D0D5DD"/>
<path d="M327.5 34C327.5 34.8284 326.828 35.5 326 35.5C325.172 35.5 324.5 34.8284 324.5 34C324.5 33.1716 325.172 32.5 326 32.5C326.828 32.5 327.5 33.1716 327.5 34Z" fill="#D0D5DD"/>
<path d="M350.5 34C350.5 34.8284 349.828 35.5 349 35.5C348.172 35.5 347.5 34.8284 347.5 34C347.5 33.1716 348.172 32.5 349 32.5C349.828 32.5 350.5 33.1716 350.5 34Z" fill="#D0D5DD"/>
<path d="M373.5 34C373.5 34.8284 372.828 35.5 372 35.5C371.172 35.5 370.5 34.8284 370.5 34C370.5 33.1716 371.172 32.5 372 32.5C372.828 32.5 373.5 33.1716 373.5 34Z" fill="#D0D5DD"/>
<path d="M396.5 34C396.5 34.8284 395.828 35.5 395 35.5C394.172 35.5 393.5 34.8284 393.5 34C393.5 33.1716 394.172 32.5 395 32.5C395.828 32.5 396.5 33.1716 396.5 34Z" fill="#D0D5DD"/>
<path d="M419.5 34C419.5 34.8284 418.828 35.5 418 35.5C417.172 35.5 416.5 34.8284 416.5 34C416.5 33.1716 417.172 32.5 418 32.5C418.828 32.5 419.5 33.1716 419.5 34Z" fill="#D0D5DD"/>
<path d="M-40.5 57C-40.5 57.8284 -41.1716 58.5 -42 58.5C-42.8284 58.5 -43.5 57.8284 -43.5 57C-43.5 56.1716 -42.8284 55.5 -42 55.5C-41.1716 55.5 -40.5 56.1716 -40.5 57Z" fill="#D0D5DD"/>
<path d="M-17.5 57C-17.5 57.8284 -18.1716 58.5 -19 58.5C-19.8284 58.5 -20.5 57.8284 -20.5 57C-20.5 56.1716 -19.8284 55.5 -19 55.5C-18.1716 55.5 -17.5 56.1716 -17.5 57Z" fill="#D0D5DD"/>
<path d="M5.5 57C5.5 57.8284 4.82843 58.5 4 58.5C3.17157 58.5 2.5 57.8284 2.5 57C2.5 56.1716 3.17157 55.5 4 55.5C4.82843 55.5 5.5 56.1716 5.5 57Z" fill="#D0D5DD"/>
<path d="M28.5 57C28.5 57.8284 27.8284 58.5 27 58.5C26.1716 58.5 25.5 57.8284 25.5 57C25.5 56.1716 26.1716 55.5 27 55.5C27.8284 55.5 28.5 56.1716 28.5 57Z" fill="#D0D5DD"/>
<path d="M51.5 57C51.5 57.8284 50.8284 58.5 50 58.5C49.1716 58.5 48.5 57.8284 48.5 57C48.5 56.1716 49.1716 55.5 50 55.5C50.8284 55.5 51.5 56.1716 51.5 57Z" fill="#D0D5DD"/>
<path d="M74.5 57C74.5 57.8284 73.8284 58.5 73 58.5C72.1716 58.5 71.5 57.8284 71.5 57C71.5 56.1716 72.1716 55.5 73 55.5C73.8284 55.5 74.5 56.1716 74.5 57Z" fill="#D0D5DD"/>
<path d="M97.5 57C97.5 57.8284 96.8284 58.5 96 58.5C95.1716 58.5 94.5 57.8284 94.5 57C94.5 56.1716 95.1716 55.5 96 55.5C96.8284 55.5 97.5 56.1716 97.5 57Z" fill="#D0D5DD"/>
<path d="M120.5 57C120.5 57.8284 119.828 58.5 119 58.5C118.172 58.5 117.5 57.8284 117.5 57C117.5 56.1716 118.172 55.5 119 55.5C119.828 55.5 120.5 56.1716 120.5 57Z" fill="#D0D5DD"/>
<path d="M143.5 57C143.5 57.8284 142.828 58.5 142 58.5C141.172 58.5 140.5 57.8284 140.5 57C140.5 56.1716 141.172 55.5 142 55.5C142.828 55.5 143.5 56.1716 143.5 57Z" fill="#D0D5DD"/>
<path d="M166.5 57C166.5 57.8284 165.828 58.5 165 58.5C164.172 58.5 163.5 57.8284 163.5 57C163.5 56.1716 164.172 55.5 165 55.5C165.828 55.5 166.5 56.1716 166.5 57Z" fill="#D0D5DD"/>
<path d="M189.5 57C189.5 57.8284 188.828 58.5 188 58.5C187.172 58.5 186.5 57.8284 186.5 57C186.5 56.1716 187.172 55.5 188 55.5C188.828 55.5 189.5 56.1716 189.5 57Z" fill="#D0D5DD"/>
<path d="M212.5 57C212.5 57.8284 211.828 58.5 211 58.5C210.172 58.5 209.5 57.8284 209.5 57C209.5 56.1716 210.172 55.5 211 55.5C211.828 55.5 212.5 56.1716 212.5 57Z" fill="#D0D5DD"/>
<path d="M235.5 57C235.5 57.8284 234.828 58.5 234 58.5C233.172 58.5 232.5 57.8284 232.5 57C232.5 56.1716 233.172 55.5 234 55.5C234.828 55.5 235.5 56.1716 235.5 57Z" fill="#D0D5DD"/>
<path d="M258.5 57C258.5 57.8284 257.828 58.5 257 58.5C256.172 58.5 255.5 57.8284 255.5 57C255.5 56.1716 256.172 55.5 257 55.5C257.828 55.5 258.5 56.1716 258.5 57Z" fill="#D0D5DD"/>
<path d="M281.5 57C281.5 57.8284 280.828 58.5 280 58.5C279.172 58.5 278.5 57.8284 278.5 57C278.5 56.1716 279.172 55.5 280 55.5C280.828 55.5 281.5 56.1716 281.5 57Z" fill="#D0D5DD"/>
<path d="M304.5 57C304.5 57.8284 303.828 58.5 303 58.5C302.172 58.5 301.5 57.8284 301.5 57C301.5 56.1716 302.172 55.5 303 55.5C303.828 55.5 304.5 56.1716 304.5 57Z" fill="#D0D5DD"/>
<path d="M327.5 57C327.5 57.8284 326.828 58.5 326 58.5C325.172 58.5 324.5 57.8284 324.5 57C324.5 56.1716 325.172 55.5 326 55.5C326.828 55.5 327.5 56.1716 327.5 57Z" fill="#D0D5DD"/>
<path d="M350.5 57C350.5 57.8284 349.828 58.5 349 58.5C348.172 58.5 347.5 57.8284 347.5 57C347.5 56.1716 348.172 55.5 349 55.5C349.828 55.5 350.5 56.1716 350.5 57Z" fill="#D0D5DD"/>
<path d="M373.5 57C373.5 57.8284 372.828 58.5 372 58.5C371.172 58.5 370.5 57.8284 370.5 57C370.5 56.1716 371.172 55.5 372 55.5C372.828 55.5 373.5 56.1716 373.5 57Z" fill="#D0D5DD"/>
<path d="M396.5 57C396.5 57.8284 395.828 58.5 395 58.5C394.172 58.5 393.5 57.8284 393.5 57C393.5 56.1716 394.172 55.5 395 55.5C395.828 55.5 396.5 56.1716 396.5 57Z" fill="#D0D5DD"/>
<path d="M419.5 57C419.5 57.8284 418.828 58.5 418 58.5C417.172 58.5 416.5 57.8284 416.5 57C416.5 56.1716 417.172 55.5 418 55.5C418.828 55.5 419.5 56.1716 419.5 57Z" fill="#D0D5DD"/>
<path d="M-40.5 80C-40.5 80.8284 -41.1716 81.5 -42 81.5C-42.8284 81.5 -43.5 80.8284 -43.5 80C-43.5 79.1716 -42.8284 78.5 -42 78.5C-41.1716 78.5 -40.5 79.1716 -40.5 80Z" fill="#D0D5DD"/>
<path d="M-17.5 80C-17.5 80.8284 -18.1716 81.5 -19 81.5C-19.8284 81.5 -20.5 80.8284 -20.5 80C-20.5 79.1716 -19.8284 78.5 -19 78.5C-18.1716 78.5 -17.5 79.1716 -17.5 80Z" fill="#D0D5DD"/>
<path d="M5.5 80C5.5 80.8284 4.82843 81.5 4 81.5C3.17157 81.5 2.5 80.8284 2.5 80C2.5 79.1716 3.17157 78.5 4 78.5C4.82843 78.5 5.5 79.1716 5.5 80Z" fill="#D0D5DD"/>
<path d="M28.5 80C28.5 80.8284 27.8284 81.5 27 81.5C26.1716 81.5 25.5 80.8284 25.5 80C25.5 79.1716 26.1716 78.5 27 78.5C27.8284 78.5 28.5 79.1716 28.5 80Z" fill="#D0D5DD"/>
<path d="M51.5 80C51.5 80.8284 50.8284 81.5 50 81.5C49.1716 81.5 48.5 80.8284 48.5 80C48.5 79.1716 49.1716 78.5 50 78.5C50.8284 78.5 51.5 79.1716 51.5 80Z" fill="#D0D5DD"/>
<path d="M74.5 80C74.5 80.8284 73.8284 81.5 73 81.5C72.1716 81.5 71.5 80.8284 71.5 80C71.5 79.1716 72.1716 78.5 73 78.5C73.8284 78.5 74.5 79.1716 74.5 80Z" fill="#D0D5DD"/>
<path d="M97.5 80C97.5 80.8284 96.8284 81.5 96 81.5C95.1716 81.5 94.5 80.8284 94.5 80C94.5 79.1716 95.1716 78.5 96 78.5C96.8284 78.5 97.5 79.1716 97.5 80Z" fill="#D0D5DD"/>
<path d="M120.5 80C120.5 80.8284 119.828 81.5 119 81.5C118.172 81.5 117.5 80.8284 117.5 80C117.5 79.1716 118.172 78.5 119 78.5C119.828 78.5 120.5 79.1716 120.5 80Z" fill="#D0D5DD"/>
<path d="M143.5 80C143.5 80.8284 142.828 81.5 142 81.5C141.172 81.5 140.5 80.8284 140.5 80C140.5 79.1716 141.172 78.5 142 78.5C142.828 78.5 143.5 79.1716 143.5 80Z" fill="#D0D5DD"/>
<path d="M166.5 80C166.5 80.8284 165.828 81.5 165 81.5C164.172 81.5 163.5 80.8284 163.5 80C163.5 79.1716 164.172 78.5 165 78.5C165.828 78.5 166.5 79.1716 166.5 80Z" fill="#D0D5DD"/>
<path d="M189.5 80C189.5 80.8284 188.828 81.5 188 81.5C187.172 81.5 186.5 80.8284 186.5 80C186.5 79.1716 187.172 78.5 188 78.5C188.828 78.5 189.5 79.1716 189.5 80Z" fill="#D0D5DD"/>
<path d="M212.5 80C212.5 80.8284 211.828 81.5 211 81.5C210.172 81.5 209.5 80.8284 209.5 80C209.5 79.1716 210.172 78.5 211 78.5C211.828 78.5 212.5 79.1716 212.5 80Z" fill="#D0D5DD"/>
<path d="M235.5 80C235.5 80.8284 234.828 81.5 234 81.5C233.172 81.5 232.5 80.8284 232.5 80C232.5 79.1716 233.172 78.5 234 78.5C234.828 78.5 235.5 79.1716 235.5 80Z" fill="#D0D5DD"/>
<path d="M258.5 80C258.5 80.8284 257.828 81.5 257 81.5C256.172 81.5 255.5 80.8284 255.5 80C255.5 79.1716 256.172 78.5 257 78.5C257.828 78.5 258.5 79.1716 258.5 80Z" fill="#D0D5DD"/>
<path d="M281.5 80C281.5 80.8284 280.828 81.5 280 81.5C279.172 81.5 278.5 80.8284 278.5 80C278.5 79.1716 279.172 78.5 280 78.5C280.828 78.5 281.5 79.1716 281.5 80Z" fill="#D0D5DD"/>
<path d="M304.5 80C304.5 80.8284 303.828 81.5 303 81.5C302.172 81.5 301.5 80.8284 301.5 80C301.5 79.1716 302.172 78.5 303 78.5C303.828 78.5 304.5 79.1716 304.5 80Z" fill="#D0D5DD"/>
<path d="M327.5 80C327.5 80.8284 326.828 81.5 326 81.5C325.172 81.5 324.5 80.8284 324.5 80C324.5 79.1716 325.172 78.5 326 78.5C326.828 78.5 327.5 79.1716 327.5 80Z" fill="#D0D5DD"/>
<path d="M350.5 80C350.5 80.8284 349.828 81.5 349 81.5C348.172 81.5 347.5 80.8284 347.5 80C347.5 79.1716 348.172 78.5 349 78.5C349.828 78.5 350.5 79.1716 350.5 80Z" fill="#D0D5DD"/>
<path d="M373.5 80C373.5 80.8284 372.828 81.5 372 81.5C371.172 81.5 370.5 80.8284 370.5 80C370.5 79.1716 371.172 78.5 372 78.5C372.828 78.5 373.5 79.1716 373.5 80Z" fill="#D0D5DD"/>
<path d="M396.5 80C396.5 80.8284 395.828 81.5 395 81.5C394.172 81.5 393.5 80.8284 393.5 80C393.5 79.1716 394.172 78.5 395 78.5C395.828 78.5 396.5 79.1716 396.5 80Z" fill="#D0D5DD"/>
<path d="M419.5 80C419.5 80.8284 418.828 81.5 418 81.5C417.172 81.5 416.5 80.8284 416.5 80C416.5 79.1716 417.172 78.5 418 78.5C418.828 78.5 419.5 79.1716 419.5 80Z" fill="#D0D5DD"/>
<path d="M-40.5 103C-40.5 103.828 -41.1716 104.5 -42 104.5C-42.8284 104.5 -43.5 103.828 -43.5 103C-43.5 102.172 -42.8284 101.5 -42 101.5C-41.1716 101.5 -40.5 102.172 -40.5 103Z" fill="#D0D5DD"/>
<path d="M-17.5 103C-17.5 103.828 -18.1716 104.5 -19 104.5C-19.8284 104.5 -20.5 103.828 -20.5 103C-20.5 102.172 -19.8284 101.5 -19 101.5C-18.1716 101.5 -17.5 102.172 -17.5 103Z" fill="#D0D5DD"/>
<path d="M5.5 103C5.5 103.828 4.82843 104.5 4 104.5C3.17157 104.5 2.5 103.828 2.5 103C2.5 102.172 3.17157 101.5 4 101.5C4.82843 101.5 5.5 102.172 5.5 103Z" fill="#D0D5DD"/>
<path d="M28.5 103C28.5 103.828 27.8284 104.5 27 104.5C26.1716 104.5 25.5 103.828 25.5 103C25.5 102.172 26.1716 101.5 27 101.5C27.8284 101.5 28.5 102.172 28.5 103Z" fill="#D0D5DD"/>
<path d="M51.5 103C51.5 103.828 50.8284 104.5 50 104.5C49.1716 104.5 48.5 103.828 48.5 103C48.5 102.172 49.1716 101.5 50 101.5C50.8284 101.5 51.5 102.172 51.5 103Z" fill="#D0D5DD"/>
<path d="M74.5 103C74.5 103.828 73.8284 104.5 73 104.5C72.1716 104.5 71.5 103.828 71.5 103C71.5 102.172 72.1716 101.5 73 101.5C73.8284 101.5 74.5 102.172 74.5 103Z" fill="#D0D5DD"/>
<path d="M97.5 103C97.5 103.828 96.8284 104.5 96 104.5C95.1716 104.5 94.5 103.828 94.5 103C94.5 102.172 95.1716 101.5 96 101.5C96.8284 101.5 97.5 102.172 97.5 103Z" fill="#D0D5DD"/>
<path d="M120.5 103C120.5 103.828 119.828 104.5 119 104.5C118.172 104.5 117.5 103.828 117.5 103C117.5 102.172 118.172 101.5 119 101.5C119.828 101.5 120.5 102.172 120.5 103Z" fill="#D0D5DD"/>
<path d="M143.5 103C143.5 103.828 142.828 104.5 142 104.5C141.172 104.5 140.5 103.828 140.5 103C140.5 102.172 141.172 101.5 142 101.5C142.828 101.5 143.5 102.172 143.5 103Z" fill="#D0D5DD"/>
<path d="M166.5 103C166.5 103.828 165.828 104.5 165 104.5C164.172 104.5 163.5 103.828 163.5 103C163.5 102.172 164.172 101.5 165 101.5C165.828 101.5 166.5 102.172 166.5 103Z" fill="#D0D5DD"/>
<path d="M189.5 103C189.5 103.828 188.828 104.5 188 104.5C187.172 104.5 186.5 103.828 186.5 103C186.5 102.172 187.172 101.5 188 101.5C188.828 101.5 189.5 102.172 189.5 103Z" fill="#D0D5DD"/>
<path d="M212.5 103C212.5 103.828 211.828 104.5 211 104.5C210.172 104.5 209.5 103.828 209.5 103C209.5 102.172 210.172 101.5 211 101.5C211.828 101.5 212.5 102.172 212.5 103Z" fill="#D0D5DD"/>
<path d="M235.5 103C235.5 103.828 234.828 104.5 234 104.5C233.172 104.5 232.5 103.828 232.5 103C232.5 102.172 233.172 101.5 234 101.5C234.828 101.5 235.5 102.172 235.5 103Z" fill="#D0D5DD"/>
<path d="M258.5 103C258.5 103.828 257.828 104.5 257 104.5C256.172 104.5 255.5 103.828 255.5 103C255.5 102.172 256.172 101.5 257 101.5C257.828 101.5 258.5 102.172 258.5 103Z" fill="#D0D5DD"/>
<path d="M281.5 103C281.5 103.828 280.828 104.5 280 104.5C279.172 104.5 278.5 103.828 278.5 103C278.5 102.172 279.172 101.5 280 101.5C280.828 101.5 281.5 102.172 281.5 103Z" fill="#D0D5DD"/>
<path d="M304.5 103C304.5 103.828 303.828 104.5 303 104.5C302.172 104.5 301.5 103.828 301.5 103C301.5 102.172 302.172 101.5 303 101.5C303.828 101.5 304.5 102.172 304.5 103Z" fill="#D0D5DD"/>
<path d="M327.5 103C327.5 103.828 326.828 104.5 326 104.5C325.172 104.5 324.5 103.828 324.5 103C324.5 102.172 325.172 101.5 326 101.5C326.828 101.5 327.5 102.172 327.5 103Z" fill="#D0D5DD"/>
<path d="M350.5 103C350.5 103.828 349.828 104.5 349 104.5C348.172 104.5 347.5 103.828 347.5 103C347.5 102.172 348.172 101.5 349 101.5C349.828 101.5 350.5 102.172 350.5 103Z" fill="#D0D5DD"/>
<path d="M373.5 103C373.5 103.828 372.828 104.5 372 104.5C371.172 104.5 370.5 103.828 370.5 103C370.5 102.172 371.172 101.5 372 101.5C372.828 101.5 373.5 102.172 373.5 103Z" fill="#D0D5DD"/>
<path d="M396.5 103C396.5 103.828 395.828 104.5 395 104.5C394.172 104.5 393.5 103.828 393.5 103C393.5 102.172 394.172 101.5 395 101.5C395.828 101.5 396.5 102.172 396.5 103Z" fill="#D0D5DD"/>
<path d="M419.5 103C419.5 103.828 418.828 104.5 418 104.5C417.172 104.5 416.5 103.828 416.5 103C416.5 102.172 417.172 101.5 418 101.5C418.828 101.5 419.5 102.172 419.5 103Z" fill="#D0D5DD"/>
<path d="M-40.5 126C-40.5 126.828 -41.1716 127.5 -42 127.5C-42.8284 127.5 -43.5 126.828 -43.5 126C-43.5 125.172 -42.8284 124.5 -42 124.5C-41.1716 124.5 -40.5 125.172 -40.5 126Z" fill="#D0D5DD"/>
<path d="M-17.5 126C-17.5 126.828 -18.1716 127.5 -19 127.5C-19.8284 127.5 -20.5 126.828 -20.5 126C-20.5 125.172 -19.8284 124.5 -19 124.5C-18.1716 124.5 -17.5 125.172 -17.5 126Z" fill="#D0D5DD"/>
<path d="M5.5 126C5.5 126.828 4.82843 127.5 4 127.5C3.17157 127.5 2.5 126.828 2.5 126C2.5 125.172 3.17157 124.5 4 124.5C4.82843 124.5 5.5 125.172 5.5 126Z" fill="#D0D5DD"/>
<path d="M28.5 126C28.5 126.828 27.8284 127.5 27 127.5C26.1716 127.5 25.5 126.828 25.5 126C25.5 125.172 26.1716 124.5 27 124.5C27.8284 124.5 28.5 125.172 28.5 126Z" fill="#D0D5DD"/>
<path d="M51.5 126C51.5 126.828 50.8284 127.5 50 127.5C49.1716 127.5 48.5 126.828 48.5 126C48.5 125.172 49.1716 124.5 50 124.5C50.8284 124.5 51.5 125.172 51.5 126Z" fill="#D0D5DD"/>
<path d="M74.5 126C74.5 126.828 73.8284 127.5 73 127.5C72.1716 127.5 71.5 126.828 71.5 126C71.5 125.172 72.1716 124.5 73 124.5C73.8284 124.5 74.5 125.172 74.5 126Z" fill="#D0D5DD"/>
<path d="M97.5 126C97.5 126.828 96.8284 127.5 96 127.5C95.1716 127.5 94.5 126.828 94.5 126C94.5 125.172 95.1716 124.5 96 124.5C96.8284 124.5 97.5 125.172 97.5 126Z" fill="#D0D5DD"/>
<path d="M120.5 126C120.5 126.828 119.828 127.5 119 127.5C118.172 127.5 117.5 126.828 117.5 126C117.5 125.172 118.172 124.5 119 124.5C119.828 124.5 120.5 125.172 120.5 126Z" fill="#D0D5DD"/>
<path d="M143.5 126C143.5 126.828 142.828 127.5 142 127.5C141.172 127.5 140.5 126.828 140.5 126C140.5 125.172 141.172 124.5 142 124.5C142.828 124.5 143.5 125.172 143.5 126Z" fill="#D0D5DD"/>
<path d="M166.5 126C166.5 126.828 165.828 127.5 165 127.5C164.172 127.5 163.5 126.828 163.5 126C163.5 125.172 164.172 124.5 165 124.5C165.828 124.5 166.5 125.172 166.5 126Z" fill="#D0D5DD"/>
<path d="M189.5 126C189.5 126.828 188.828 127.5 188 127.5C187.172 127.5 186.5 126.828 186.5 126C186.5 125.172 187.172 124.5 188 124.5C188.828 124.5 189.5 125.172 189.5 126Z" fill="#D0D5DD"/>
<path d="M212.5 126C212.5 126.828 211.828 127.5 211 127.5C210.172 127.5 209.5 126.828 209.5 126C209.5 125.172 210.172 124.5 211 124.5C211.828 124.5 212.5 125.172 212.5 126Z" fill="#D0D5DD"/>
<path d="M235.5 126C235.5 126.828 234.828 127.5 234 127.5C233.172 127.5 232.5 126.828 232.5 126C232.5 125.172 233.172 124.5 234 124.5C234.828 124.5 235.5 125.172 235.5 126Z" fill="#D0D5DD"/>
<path d="M258.5 126C258.5 126.828 257.828 127.5 257 127.5C256.172 127.5 255.5 126.828 255.5 126C255.5 125.172 256.172 124.5 257 124.5C257.828 124.5 258.5 125.172 258.5 126Z" fill="#D0D5DD"/>
<path d="M281.5 126C281.5 126.828 280.828 127.5 280 127.5C279.172 127.5 278.5 126.828 278.5 126C278.5 125.172 279.172 124.5 280 124.5C280.828 124.5 281.5 125.172 281.5 126Z" fill="#D0D5DD"/>
<path d="M304.5 126C304.5 126.828 303.828 127.5 303 127.5C302.172 127.5 301.5 126.828 301.5 126C301.5 125.172 302.172 124.5 303 124.5C303.828 124.5 304.5 125.172 304.5 126Z" fill="#D0D5DD"/>
<path d="M327.5 126C327.5 126.828 326.828 127.5 326 127.5C325.172 127.5 324.5 126.828 324.5 126C324.5 125.172 325.172 124.5 326 124.5C326.828 124.5 327.5 125.172 327.5 126Z" fill="#D0D5DD"/>
<path d="M350.5 126C350.5 126.828 349.828 127.5 349 127.5C348.172 127.5 347.5 126.828 347.5 126C347.5 125.172 348.172 124.5 349 124.5C349.828 124.5 350.5 125.172 350.5 126Z" fill="#D0D5DD"/>
<path d="M373.5 126C373.5 126.828 372.828 127.5 372 127.5C371.172 127.5 370.5 126.828 370.5 126C370.5 125.172 371.172 124.5 372 124.5C372.828 124.5 373.5 125.172 373.5 126Z" fill="#D0D5DD"/>
<path d="M396.5 126C396.5 126.828 395.828 127.5 395 127.5C394.172 127.5 393.5 126.828 393.5 126C393.5 125.172 394.172 124.5 395 124.5C395.828 124.5 396.5 125.172 396.5 126Z" fill="#D0D5DD"/>
<path d="M419.5 126C419.5 126.828 418.828 127.5 418 127.5C417.172 127.5 416.5 126.828 416.5 126C416.5 125.172 417.172 124.5 418 124.5C418.828 124.5 419.5 125.172 419.5 126Z" fill="#D0D5DD"/>
<path d="M-40.5 149C-40.5 149.828 -41.1716 150.5 -42 150.5C-42.8284 150.5 -43.5 149.828 -43.5 149C-43.5 148.172 -42.8284 147.5 -42 147.5C-41.1716 147.5 -40.5 148.172 -40.5 149Z" fill="#D0D5DD"/>
<path d="M-17.5 149C-17.5 149.828 -18.1716 150.5 -19 150.5C-19.8284 150.5 -20.5 149.828 -20.5 149C-20.5 148.172 -19.8284 147.5 -19 147.5C-18.1716 147.5 -17.5 148.172 -17.5 149Z" fill="#D0D5DD"/>
<path d="M5.5 149C5.5 149.828 4.82843 150.5 4 150.5C3.17157 150.5 2.5 149.828 2.5 149C2.5 148.172 3.17157 147.5 4 147.5C4.82843 147.5 5.5 148.172 5.5 149Z" fill="#D0D5DD"/>
<path d="M28.5 149C28.5 149.828 27.8284 150.5 27 150.5C26.1716 150.5 25.5 149.828 25.5 149C25.5 148.172 26.1716 147.5 27 147.5C27.8284 147.5 28.5 148.172 28.5 149Z" fill="#D0D5DD"/>
<path d="M51.5 149C51.5 149.828 50.8284 150.5 50 150.5C49.1716 150.5 48.5 149.828 48.5 149C48.5 148.172 49.1716 147.5 50 147.5C50.8284 147.5 51.5 148.172 51.5 149Z" fill="#D0D5DD"/>
<path d="M74.5 149C74.5 149.828 73.8284 150.5 73 150.5C72.1716 150.5 71.5 149.828 71.5 149C71.5 148.172 72.1716 147.5 73 147.5C73.8284 147.5 74.5 148.172 74.5 149Z" fill="#D0D5DD"/>
<path d="M97.5 149C97.5 149.828 96.8284 150.5 96 150.5C95.1716 150.5 94.5 149.828 94.5 149C94.5 148.172 95.1716 147.5 96 147.5C96.8284 147.5 97.5 148.172 97.5 149Z" fill="#D0D5DD"/>
<path d="M120.5 149C120.5 149.828 119.828 150.5 119 150.5C118.172 150.5 117.5 149.828 117.5 149C117.5 148.172 118.172 147.5 119 147.5C119.828 147.5 120.5 148.172 120.5 149Z" fill="#D0D5DD"/>
<path d="M143.5 149C143.5 149.828 142.828 150.5 142 150.5C141.172 150.5 140.5 149.828 140.5 149C140.5 148.172 141.172 147.5 142 147.5C142.828 147.5 143.5 148.172 143.5 149Z" fill="#D0D5DD"/>
<path d="M166.5 149C166.5 149.828 165.828 150.5 165 150.5C164.172 150.5 163.5 149.828 163.5 149C163.5 148.172 164.172 147.5 165 147.5C165.828 147.5 166.5 148.172 166.5 149Z" fill="#D0D5DD"/>
<path d="M189.5 149C189.5 149.828 188.828 150.5 188 150.5C187.172 150.5 186.5 149.828 186.5 149C186.5 148.172 187.172 147.5 188 147.5C188.828 147.5 189.5 148.172 189.5 149Z" fill="#D0D5DD"/>
<path d="M212.5 149C212.5 149.828 211.828 150.5 211 150.5C210.172 150.5 209.5 149.828 209.5 149C209.5 148.172 210.172 147.5 211 147.5C211.828 147.5 212.5 148.172 212.5 149Z" fill="#D0D5DD"/>
<path d="M235.5 149C235.5 149.828 234.828 150.5 234 150.5C233.172 150.5 232.5 149.828 232.5 149C232.5 148.172 233.172 147.5 234 147.5C234.828 147.5 235.5 148.172 235.5 149Z" fill="#D0D5DD"/>
<path d="M258.5 149C258.5 149.828 257.828 150.5 257 150.5C256.172 150.5 255.5 149.828 255.5 149C255.5 148.172 256.172 147.5 257 147.5C257.828 147.5 258.5 148.172 258.5 149Z" fill="#D0D5DD"/>
<path d="M281.5 149C281.5 149.828 280.828 150.5 280 150.5C279.172 150.5 278.5 149.828 278.5 149C278.5 148.172 279.172 147.5 280 147.5C280.828 147.5 281.5 148.172 281.5 149Z" fill="#D0D5DD"/>
<path d="M304.5 149C304.5 149.828 303.828 150.5 303 150.5C302.172 150.5 301.5 149.828 301.5 149C301.5 148.172 302.172 147.5 303 147.5C303.828 147.5 304.5 148.172 304.5 149Z" fill="#D0D5DD"/>
<path d="M327.5 149C327.5 149.828 326.828 150.5 326 150.5C325.172 150.5 324.5 149.828 324.5 149C324.5 148.172 325.172 147.5 326 147.5C326.828 147.5 327.5 148.172 327.5 149Z" fill="#D0D5DD"/>
<path d="M350.5 149C350.5 149.828 349.828 150.5 349 150.5C348.172 150.5 347.5 149.828 347.5 149C347.5 148.172 348.172 147.5 349 147.5C349.828 147.5 350.5 148.172 350.5 149Z" fill="#D0D5DD"/>
<path d="M373.5 149C373.5 149.828 372.828 150.5 372 150.5C371.172 150.5 370.5 149.828 370.5 149C370.5 148.172 371.172 147.5 372 147.5C372.828 147.5 373.5 148.172 373.5 149Z" fill="#D0D5DD"/>
<path d="M396.5 149C396.5 149.828 395.828 150.5 395 150.5C394.172 150.5 393.5 149.828 393.5 149C393.5 148.172 394.172 147.5 395 147.5C395.828 147.5 396.5 148.172 396.5 149Z" fill="#D0D5DD"/>
<path d="M419.5 149C419.5 149.828 418.828 150.5 418 150.5C417.172 150.5 416.5 149.828 416.5 149C416.5 148.172 417.172 147.5 418 147.5C418.828 147.5 419.5 148.172 419.5 149Z" fill="#D0D5DD"/>
<path d="M-40.5 172C-40.5 172.828 -41.1716 173.5 -42 173.5C-42.8284 173.5 -43.5 172.828 -43.5 172C-43.5 171.172 -42.8284 170.5 -42 170.5C-41.1716 170.5 -40.5 171.172 -40.5 172Z" fill="#D0D5DD"/>
<path d="M-17.5 172C-17.5 172.828 -18.1716 173.5 -19 173.5C-19.8284 173.5 -20.5 172.828 -20.5 172C-20.5 171.172 -19.8284 170.5 -19 170.5C-18.1716 170.5 -17.5 171.172 -17.5 172Z" fill="#D0D5DD"/>
<path d="M5.5 172C5.5 172.828 4.82843 173.5 4 173.5C3.17157 173.5 2.5 172.828 2.5 172C2.5 171.172 3.17157 170.5 4 170.5C4.82843 170.5 5.5 171.172 5.5 172Z" fill="#D0D5DD"/>
<path d="M28.5 172C28.5 172.828 27.8284 173.5 27 173.5C26.1716 173.5 25.5 172.828 25.5 172C25.5 171.172 26.1716 170.5 27 170.5C27.8284 170.5 28.5 171.172 28.5 172Z" fill="#D0D5DD"/>
<path d="M51.5 172C51.5 172.828 50.8284 173.5 50 173.5C49.1716 173.5 48.5 172.828 48.5 172C48.5 171.172 49.1716 170.5 50 170.5C50.8284 170.5 51.5 171.172 51.5 172Z" fill="#D0D5DD"/>
<path d="M74.5 172C74.5 172.828 73.8284 173.5 73 173.5C72.1716 173.5 71.5 172.828 71.5 172C71.5 171.172 72.1716 170.5 73 170.5C73.8284 170.5 74.5 171.172 74.5 172Z" fill="#D0D5DD"/>
<path d="M97.5 172C97.5 172.828 96.8284 173.5 96 173.5C95.1716 173.5 94.5 172.828 94.5 172C94.5 171.172 95.1716 170.5 96 170.5C96.8284 170.5 97.5 171.172 97.5 172Z" fill="#D0D5DD"/>
<path d="M120.5 172C120.5 172.828 119.828 173.5 119 173.5C118.172 173.5 117.5 172.828 117.5 172C117.5 171.172 118.172 170.5 119 170.5C119.828 170.5 120.5 171.172 120.5 172Z" fill="#D0D5DD"/>
<path d="M143.5 172C143.5 172.828 142.828 173.5 142 173.5C141.172 173.5 140.5 172.828 140.5 172C140.5 171.172 141.172 170.5 142 170.5C142.828 170.5 143.5 171.172 143.5 172Z" fill="#D0D5DD"/>
<path d="M166.5 172C166.5 172.828 165.828 173.5 165 173.5C164.172 173.5 163.5 172.828 163.5 172C163.5 171.172 164.172 170.5 165 170.5C165.828 170.5 166.5 171.172 166.5 172Z" fill="#D0D5DD"/>
<path d="M189.5 172C189.5 172.828 188.828 173.5 188 173.5C187.172 173.5 186.5 172.828 186.5 172C186.5 171.172 187.172 170.5 188 170.5C188.828 170.5 189.5 171.172 189.5 172Z" fill="#D0D5DD"/>
<path d="M212.5 172C212.5 172.828 211.828 173.5 211 173.5C210.172 173.5 209.5 172.828 209.5 172C209.5 171.172 210.172 170.5 211 170.5C211.828 170.5 212.5 171.172 212.5 172Z" fill="#D0D5DD"/>
<path d="M235.5 172C235.5 172.828 234.828 173.5 234 173.5C233.172 173.5 232.5 172.828 232.5 172C232.5 171.172 233.172 170.5 234 170.5C234.828 170.5 235.5 171.172 235.5 172Z" fill="#D0D5DD"/>
<path d="M258.5 172C258.5 172.828 257.828 173.5 257 173.5C256.172 173.5 255.5 172.828 255.5 172C255.5 171.172 256.172 170.5 257 170.5C257.828 170.5 258.5 171.172 258.5 172Z" fill="#D0D5DD"/>
<path d="M281.5 172C281.5 172.828 280.828 173.5 280 173.5C279.172 173.5 278.5 172.828 278.5 172C278.5 171.172 279.172 170.5 280 170.5C280.828 170.5 281.5 171.172 281.5 172Z" fill="#D0D5DD"/>
<path d="M304.5 172C304.5 172.828 303.828 173.5 303 173.5C302.172 173.5 301.5 172.828 301.5 172C301.5 171.172 302.172 170.5 303 170.5C303.828 170.5 304.5 171.172 304.5 172Z" fill="#D0D5DD"/>
<path d="M327.5 172C327.5 172.828 326.828 173.5 326 173.5C325.172 173.5 324.5 172.828 324.5 172C324.5 171.172 325.172 170.5 326 170.5C326.828 170.5 327.5 171.172 327.5 172Z" fill="#D0D5DD"/>
<path d="M350.5 172C350.5 172.828 349.828 173.5 349 173.5C348.172 173.5 347.5 172.828 347.5 172C347.5 171.172 348.172 170.5 349 170.5C349.828 170.5 350.5 171.172 350.5 172Z" fill="#D0D5DD"/>
<path d="M373.5 172C373.5 172.828 372.828 173.5 372 173.5C371.172 173.5 370.5 172.828 370.5 172C370.5 171.172 371.172 170.5 372 170.5C372.828 170.5 373.5 171.172 373.5 172Z" fill="#D0D5DD"/>
<path d="M396.5 172C396.5 172.828 395.828 173.5 395 173.5C394.172 173.5 393.5 172.828 393.5 172C393.5 171.172 394.172 170.5 395 170.5C395.828 170.5 396.5 171.172 396.5 172Z" fill="#D0D5DD"/>
<path d="M419.5 172C419.5 172.828 418.828 173.5 418 173.5C417.172 173.5 416.5 172.828 416.5 172C416.5 171.172 417.172 170.5 418 170.5C418.828 170.5 419.5 171.172 419.5 172Z" fill="#D0D5DD"/>
<path d="M-40.5 195C-40.5 195.828 -41.1716 196.5 -42 196.5C-42.8284 196.5 -43.5 195.828 -43.5 195C-43.5 194.172 -42.8284 193.5 -42 193.5C-41.1716 193.5 -40.5 194.172 -40.5 195Z" fill="#D0D5DD"/>
<path d="M-17.5 195C-17.5 195.828 -18.1716 196.5 -19 196.5C-19.8284 196.5 -20.5 195.828 -20.5 195C-20.5 194.172 -19.8284 193.5 -19 193.5C-18.1716 193.5 -17.5 194.172 -17.5 195Z" fill="#D0D5DD"/>
<path d="M5.5 195C5.5 195.828 4.82843 196.5 4 196.5C3.17157 196.5 2.5 195.828 2.5 195C2.5 194.172 3.17157 193.5 4 193.5C4.82843 193.5 5.5 194.172 5.5 195Z" fill="#D0D5DD"/>
<path d="M28.5 195C28.5 195.828 27.8284 196.5 27 196.5C26.1716 196.5 25.5 195.828 25.5 195C25.5 194.172 26.1716 193.5 27 193.5C27.8284 193.5 28.5 194.172 28.5 195Z" fill="#D0D5DD"/>
<path d="M51.5 195C51.5 195.828 50.8284 196.5 50 196.5C49.1716 196.5 48.5 195.828 48.5 195C48.5 194.172 49.1716 193.5 50 193.5C50.8284 193.5 51.5 194.172 51.5 195Z" fill="#D0D5DD"/>
<path d="M74.5 195C74.5 195.828 73.8284 196.5 73 196.5C72.1716 196.5 71.5 195.828 71.5 195C71.5 194.172 72.1716 193.5 73 193.5C73.8284 193.5 74.5 194.172 74.5 195Z" fill="#D0D5DD"/>
<path d="M97.5 195C97.5 195.828 96.8284 196.5 96 196.5C95.1716 196.5 94.5 195.828 94.5 195C94.5 194.172 95.1716 193.5 96 193.5C96.8284 193.5 97.5 194.172 97.5 195Z" fill="#D0D5DD"/>
<path d="M120.5 195C120.5 195.828 119.828 196.5 119 196.5C118.172 196.5 117.5 195.828 117.5 195C117.5 194.172 118.172 193.5 119 193.5C119.828 193.5 120.5 194.172 120.5 195Z" fill="#D0D5DD"/>
<path d="M143.5 195C143.5 195.828 142.828 196.5 142 196.5C141.172 196.5 140.5 195.828 140.5 195C140.5 194.172 141.172 193.5 142 193.5C142.828 193.5 143.5 194.172 143.5 195Z" fill="#D0D5DD"/>
<path d="M166.5 195C166.5 195.828 165.828 196.5 165 196.5C164.172 196.5 163.5 195.828 163.5 195C163.5 194.172 164.172 193.5 165 193.5C165.828 193.5 166.5 194.172 166.5 195Z" fill="#D0D5DD"/>
<path d="M189.5 195C189.5 195.828 188.828 196.5 188 196.5C187.172 196.5 186.5 195.828 186.5 195C186.5 194.172 187.172 193.5 188 193.5C188.828 193.5 189.5 194.172 189.5 195Z" fill="#D0D5DD"/>
<path d="M212.5 195C212.5 195.828 211.828 196.5 211 196.5C210.172 196.5 209.5 195.828 209.5 195C209.5 194.172 210.172 193.5 211 193.5C211.828 193.5 212.5 194.172 212.5 195Z" fill="#D0D5DD"/>
<path d="M235.5 195C235.5 195.828 234.828 196.5 234 196.5C233.172 196.5 232.5 195.828 232.5 195C232.5 194.172 233.172 193.5 234 193.5C234.828 193.5 235.5 194.172 235.5 195Z" fill="#D0D5DD"/>
<path d="M258.5 195C258.5 195.828 257.828 196.5 257 196.5C256.172 196.5 255.5 195.828 255.5 195C255.5 194.172 256.172 193.5 257 193.5C257.828 193.5 258.5 194.172 258.5 195Z" fill="#D0D5DD"/>
<path d="M281.5 195C281.5 195.828 280.828 196.5 280 196.5C279.172 196.5 278.5 195.828 278.5 195C278.5 194.172 279.172 193.5 280 193.5C280.828 193.5 281.5 194.172 281.5 195Z" fill="#D0D5DD"/>
<path d="M304.5 195C304.5 195.828 303.828 196.5 303 196.5C302.172 196.5 301.5 195.828 301.5 195C301.5 194.172 302.172 193.5 303 193.5C303.828 193.5 304.5 194.172 304.5 195Z" fill="#D0D5DD"/>
<path d="M327.5 195C327.5 195.828 326.828 196.5 326 196.5C325.172 196.5 324.5 195.828 324.5 195C324.5 194.172 325.172 193.5 326 193.5C326.828 193.5 327.5 194.172 327.5 195Z" fill="#D0D5DD"/>
<path d="M350.5 195C350.5 195.828 349.828 196.5 349 196.5C348.172 196.5 347.5 195.828 347.5 195C347.5 194.172 348.172 193.5 349 193.5C349.828 193.5 350.5 194.172 350.5 195Z" fill="#D0D5DD"/>
<path d="M373.5 195C373.5 195.828 372.828 196.5 372 196.5C371.172 196.5 370.5 195.828 370.5 195C370.5 194.172 371.172 193.5 372 193.5C372.828 193.5 373.5 194.172 373.5 195Z" fill="#D0D5DD"/>
<path d="M396.5 195C396.5 195.828 395.828 196.5 395 196.5C394.172 196.5 393.5 195.828 393.5 195C393.5 194.172 394.172 193.5 395 193.5C395.828 193.5 396.5 194.172 396.5 195Z" fill="#D0D5DD"/>
<path d="M419.5 195C419.5 195.828 418.828 196.5 418 196.5C417.172 196.5 416.5 195.828 416.5 195C416.5 194.172 417.172 193.5 418 193.5C418.828 193.5 419.5 194.172 419.5 195Z" fill="#D0D5DD"/>
<path d="M-40.5 218C-40.5 218.828 -41.1716 219.5 -42 219.5C-42.8284 219.5 -43.5 218.828 -43.5 218C-43.5 217.172 -42.8284 216.5 -42 216.5C-41.1716 216.5 -40.5 217.172 -40.5 218Z" fill="#D0D5DD"/>
<path d="M-17.5 218C-17.5 218.828 -18.1716 219.5 -19 219.5C-19.8284 219.5 -20.5 218.828 -20.5 218C-20.5 217.172 -19.8284 216.5 -19 216.5C-18.1716 216.5 -17.5 217.172 -17.5 218Z" fill="#D0D5DD"/>
<path d="M5.5 218C5.5 218.828 4.82843 219.5 4 219.5C3.17157 219.5 2.5 218.828 2.5 218C2.5 217.172 3.17157 216.5 4 216.5C4.82843 216.5 5.5 217.172 5.5 218Z" fill="#D0D5DD"/>
<path d="M28.5 218C28.5 218.828 27.8284 219.5 27 219.5C26.1716 219.5 25.5 218.828 25.5 218C25.5 217.172 26.1716 216.5 27 216.5C27.8284 216.5 28.5 217.172 28.5 218Z" fill="#D0D5DD"/>
<path d="M51.5 218C51.5 218.828 50.8284 219.5 50 219.5C49.1716 219.5 48.5 218.828 48.5 218C48.5 217.172 49.1716 216.5 50 216.5C50.8284 216.5 51.5 217.172 51.5 218Z" fill="#D0D5DD"/>
<path d="M74.5 218C74.5 218.828 73.8284 219.5 73 219.5C72.1716 219.5 71.5 218.828 71.5 218C71.5 217.172 72.1716 216.5 73 216.5C73.8284 216.5 74.5 217.172 74.5 218Z" fill="#D0D5DD"/>
<path d="M97.5 218C97.5 218.828 96.8284 219.5 96 219.5C95.1716 219.5 94.5 218.828 94.5 218C94.5 217.172 95.1716 216.5 96 216.5C96.8284 216.5 97.5 217.172 97.5 218Z" fill="#D0D5DD"/>
<path d="M120.5 218C120.5 218.828 119.828 219.5 119 219.5C118.172 219.5 117.5 218.828 117.5 218C117.5 217.172 118.172 216.5 119 216.5C119.828 216.5 120.5 217.172 120.5 218Z" fill="#D0D5DD"/>
<path d="M143.5 218C143.5 218.828 142.828 219.5 142 219.5C141.172 219.5 140.5 218.828 140.5 218C140.5 217.172 141.172 216.5 142 216.5C142.828 216.5 143.5 217.172 143.5 218Z" fill="#D0D5DD"/>
<path d="M166.5 218C166.5 218.828 165.828 219.5 165 219.5C164.172 219.5 163.5 218.828 163.5 218C163.5 217.172 164.172 216.5 165 216.5C165.828 216.5 166.5 217.172 166.5 218Z" fill="#D0D5DD"/>
<path d="M189.5 218C189.5 218.828 188.828 219.5 188 219.5C187.172 219.5 186.5 218.828 186.5 218C186.5 217.172 187.172 216.5 188 216.5C188.828 216.5 189.5 217.172 189.5 218Z" fill="#D0D5DD"/>
<path d="M212.5 218C212.5 218.828 211.828 219.5 211 219.5C210.172 219.5 209.5 218.828 209.5 218C209.5 217.172 210.172 216.5 211 216.5C211.828 216.5 212.5 217.172 212.5 218Z" fill="#D0D5DD"/>
<path d="M235.5 218C235.5 218.828 234.828 219.5 234 219.5C233.172 219.5 232.5 218.828 232.5 218C232.5 217.172 233.172 216.5 234 216.5C234.828 216.5 235.5 217.172 235.5 218Z" fill="#D0D5DD"/>
<path d="M258.5 218C258.5 218.828 257.828 219.5 257 219.5C256.172 219.5 255.5 218.828 255.5 218C255.5 217.172 256.172 216.5 257 216.5C257.828 216.5 258.5 217.172 258.5 218Z" fill="#D0D5DD"/>
<path d="M281.5 218C281.5 218.828 280.828 219.5 280 219.5C279.172 219.5 278.5 218.828 278.5 218C278.5 217.172 279.172 216.5 280 216.5C280.828 216.5 281.5 217.172 281.5 218Z" fill="#D0D5DD"/>
<path d="M304.5 218C304.5 218.828 303.828 219.5 303 219.5C302.172 219.5 301.5 218.828 301.5 218C301.5 217.172 302.172 216.5 303 216.5C303.828 216.5 304.5 217.172 304.5 218Z" fill="#D0D5DD"/>
<path d="M327.5 218C327.5 218.828 326.828 219.5 326 219.5C325.172 219.5 324.5 218.828 324.5 218C324.5 217.172 325.172 216.5 326 216.5C326.828 216.5 327.5 217.172 327.5 218Z" fill="#D0D5DD"/>
<path d="M350.5 218C350.5 218.828 349.828 219.5 349 219.5C348.172 219.5 347.5 218.828 347.5 218C347.5 217.172 348.172 216.5 349 216.5C349.828 216.5 350.5 217.172 350.5 218Z" fill="#D0D5DD"/>
<path d="M373.5 218C373.5 218.828 372.828 219.5 372 219.5C371.172 219.5 370.5 218.828 370.5 218C370.5 217.172 371.172 216.5 372 216.5C372.828 216.5 373.5 217.172 373.5 218Z" fill="#D0D5DD"/>
<path d="M396.5 218C396.5 218.828 395.828 219.5 395 219.5C394.172 219.5 393.5 218.828 393.5 218C393.5 217.172 394.172 216.5 395 216.5C395.828 216.5 396.5 217.172 396.5 218Z" fill="#D0D5DD"/>
<path d="M419.5 218C419.5 218.828 418.828 219.5 418 219.5C417.172 219.5 416.5 218.828 416.5 218C416.5 217.172 417.172 216.5 418 216.5C418.828 216.5 419.5 217.172 419.5 218Z" fill="#D0D5DD"/>
<path d="M-40.5 241C-40.5 241.828 -41.1716 242.5 -42 242.5C-42.8284 242.5 -43.5 241.828 -43.5 241C-43.5 240.172 -42.8284 239.5 -42 239.5C-41.1716 239.5 -40.5 240.172 -40.5 241Z" fill="#D0D5DD"/>
<path d="M-17.5 241C-17.5 241.828 -18.1716 242.5 -19 242.5C-19.8284 242.5 -20.5 241.828 -20.5 241C-20.5 240.172 -19.8284 239.5 -19 239.5C-18.1716 239.5 -17.5 240.172 -17.5 241Z" fill="#D0D5DD"/>
<path d="M5.5 241C5.5 241.828 4.82843 242.5 4 242.5C3.17157 242.5 2.5 241.828 2.5 241C2.5 240.172 3.17157 239.5 4 239.5C4.82843 239.5 5.5 240.172 5.5 241Z" fill="#D0D5DD"/>
<path d="M28.5 241C28.5 241.828 27.8284 242.5 27 242.5C26.1716 242.5 25.5 241.828 25.5 241C25.5 240.172 26.1716 239.5 27 239.5C27.8284 239.5 28.5 240.172 28.5 241Z" fill="#D0D5DD"/>
<path d="M51.5 241C51.5 241.828 50.8284 242.5 50 242.5C49.1716 242.5 48.5 241.828 48.5 241C48.5 240.172 49.1716 239.5 50 239.5C50.8284 239.5 51.5 240.172 51.5 241Z" fill="#D0D5DD"/>
<path d="M74.5 241C74.5 241.828 73.8284 242.5 73 242.5C72.1716 242.5 71.5 241.828 71.5 241C71.5 240.172 72.1716 239.5 73 239.5C73.8284 239.5 74.5 240.172 74.5 241Z" fill="#D0D5DD"/>
<path d="M97.5 241C97.5 241.828 96.8284 242.5 96 242.5C95.1716 242.5 94.5 241.828 94.5 241C94.5 240.172 95.1716 239.5 96 239.5C96.8284 239.5 97.5 240.172 97.5 241Z" fill="#D0D5DD"/>
<path d="M120.5 241C120.5 241.828 119.828 242.5 119 242.5C118.172 242.5 117.5 241.828 117.5 241C117.5 240.172 118.172 239.5 119 239.5C119.828 239.5 120.5 240.172 120.5 241Z" fill="#D0D5DD"/>
<path d="M143.5 241C143.5 241.828 142.828 242.5 142 242.5C141.172 242.5 140.5 241.828 140.5 241C140.5 240.172 141.172 239.5 142 239.5C142.828 239.5 143.5 240.172 143.5 241Z" fill="#D0D5DD"/>
<path d="M166.5 241C166.5 241.828 165.828 242.5 165 242.5C164.172 242.5 163.5 241.828 163.5 241C163.5 240.172 164.172 239.5 165 239.5C165.828 239.5 166.5 240.172 166.5 241Z" fill="#D0D5DD"/>
<path d="M189.5 241C189.5 241.828 188.828 242.5 188 242.5C187.172 242.5 186.5 241.828 186.5 241C186.5 240.172 187.172 239.5 188 239.5C188.828 239.5 189.5 240.172 189.5 241Z" fill="#D0D5DD"/>
<path d="M212.5 241C212.5 241.828 211.828 242.5 211 242.5C210.172 242.5 209.5 241.828 209.5 241C209.5 240.172 210.172 239.5 211 239.5C211.828 239.5 212.5 240.172 212.5 241Z" fill="#D0D5DD"/>
<path d="M235.5 241C235.5 241.828 234.828 242.5 234 242.5C233.172 242.5 232.5 241.828 232.5 241C232.5 240.172 233.172 239.5 234 239.5C234.828 239.5 235.5 240.172 235.5 241Z" fill="#D0D5DD"/>
<path d="M258.5 241C258.5 241.828 257.828 242.5 257 242.5C256.172 242.5 255.5 241.828 255.5 241C255.5 240.172 256.172 239.5 257 239.5C257.828 239.5 258.5 240.172 258.5 241Z" fill="#D0D5DD"/>
<path d="M281.5 241C281.5 241.828 280.828 242.5 280 242.5C279.172 242.5 278.5 241.828 278.5 241C278.5 240.172 279.172 239.5 280 239.5C280.828 239.5 281.5 240.172 281.5 241Z" fill="#D0D5DD"/>
<path d="M304.5 241C304.5 241.828 303.828 242.5 303 242.5C302.172 242.5 301.5 241.828 301.5 241C301.5 240.172 302.172 239.5 303 239.5C303.828 239.5 304.5 240.172 304.5 241Z" fill="#D0D5DD"/>
<path d="M327.5 241C327.5 241.828 326.828 242.5 326 242.5C325.172 242.5 324.5 241.828 324.5 241C324.5 240.172 325.172 239.5 326 239.5C326.828 239.5 327.5 240.172 327.5 241Z" fill="#D0D5DD"/>
<path d="M350.5 241C350.5 241.828 349.828 242.5 349 242.5C348.172 242.5 347.5 241.828 347.5 241C347.5 240.172 348.172 239.5 349 239.5C349.828 239.5 350.5 240.172 350.5 241Z" fill="#D0D5DD"/>
<path d="M373.5 241C373.5 241.828 372.828 242.5 372 242.5C371.172 242.5 370.5 241.828 370.5 241C370.5 240.172 371.172 239.5 372 239.5C372.828 239.5 373.5 240.172 373.5 241Z" fill="#D0D5DD"/>
<path d="M396.5 241C396.5 241.828 395.828 242.5 395 242.5C394.172 242.5 393.5 241.828 393.5 241C393.5 240.172 394.172 239.5 395 239.5C395.828 239.5 396.5 240.172 396.5 241Z" fill="#D0D5DD"/>
<path d="M419.5 241C419.5 241.828 418.828 242.5 418 242.5C417.172 242.5 416.5 241.828 416.5 241C416.5 240.172 417.172 239.5 418 239.5C418.828 239.5 419.5 240.172 419.5 241Z" fill="#D0D5DD"/>
<path d="M-40.5 264C-40.5 264.828 -41.1716 265.5 -42 265.5C-42.8284 265.5 -43.5 264.828 -43.5 264C-43.5 263.172 -42.8284 262.5 -42 262.5C-41.1716 262.5 -40.5 263.172 -40.5 264Z" fill="#D0D5DD"/>
<path d="M-17.5 264C-17.5 264.828 -18.1716 265.5 -19 265.5C-19.8284 265.5 -20.5 264.828 -20.5 264C-20.5 263.172 -19.8284 262.5 -19 262.5C-18.1716 262.5 -17.5 263.172 -17.5 264Z" fill="#D0D5DD"/>
<path d="M5.5 264C5.5 264.828 4.82843 265.5 4 265.5C3.17157 265.5 2.5 264.828 2.5 264C2.5 263.172 3.17157 262.5 4 262.5C4.82843 262.5 5.5 263.172 5.5 264Z" fill="#D0D5DD"/>
<path d="M28.5 264C28.5 264.828 27.8284 265.5 27 265.5C26.1716 265.5 25.5 264.828 25.5 264C25.5 263.172 26.1716 262.5 27 262.5C27.8284 262.5 28.5 263.172 28.5 264Z" fill="#D0D5DD"/>
<path d="M51.5 264C51.5 264.828 50.8284 265.5 50 265.5C49.1716 265.5 48.5 264.828 48.5 264C48.5 263.172 49.1716 262.5 50 262.5C50.8284 262.5 51.5 263.172 51.5 264Z" fill="#D0D5DD"/>
<path d="M74.5 264C74.5 264.828 73.8284 265.5 73 265.5C72.1716 265.5 71.5 264.828 71.5 264C71.5 263.172 72.1716 262.5 73 262.5C73.8284 262.5 74.5 263.172 74.5 264Z" fill="#D0D5DD"/>
<path d="M97.5 264C97.5 264.828 96.8284 265.5 96 265.5C95.1716 265.5 94.5 264.828 94.5 264C94.5 263.172 95.1716 262.5 96 262.5C96.8284 262.5 97.5 263.172 97.5 264Z" fill="#D0D5DD"/>
<path d="M120.5 264C120.5 264.828 119.828 265.5 119 265.5C118.172 265.5 117.5 264.828 117.5 264C117.5 263.172 118.172 262.5 119 262.5C119.828 262.5 120.5 263.172 120.5 264Z" fill="#D0D5DD"/>
<path d="M143.5 264C143.5 264.828 142.828 265.5 142 265.5C141.172 265.5 140.5 264.828 140.5 264C140.5 263.172 141.172 262.5 142 262.5C142.828 262.5 143.5 263.172 143.5 264Z" fill="#D0D5DD"/>
<path d="M166.5 264C166.5 264.828 165.828 265.5 165 265.5C164.172 265.5 163.5 264.828 163.5 264C163.5 263.172 164.172 262.5 165 262.5C165.828 262.5 166.5 263.172 166.5 264Z" fill="#D0D5DD"/>
<path d="M189.5 264C189.5 264.828 188.828 265.5 188 265.5C187.172 265.5 186.5 264.828 186.5 264C186.5 263.172 187.172 262.5 188 262.5C188.828 262.5 189.5 263.172 189.5 264Z" fill="#D0D5DD"/>
<path d="M212.5 264C212.5 264.828 211.828 265.5 211 265.5C210.172 265.5 209.5 264.828 209.5 264C209.5 263.172 210.172 262.5 211 262.5C211.828 262.5 212.5 263.172 212.5 264Z" fill="#D0D5DD"/>
<path d="M235.5 264C235.5 264.828 234.828 265.5 234 265.5C233.172 265.5 232.5 264.828 232.5 264C232.5 263.172 233.172 262.5 234 262.5C234.828 262.5 235.5 263.172 235.5 264Z" fill="#D0D5DD"/>
<path d="M258.5 264C258.5 264.828 257.828 265.5 257 265.5C256.172 265.5 255.5 264.828 255.5 264C255.5 263.172 256.172 262.5 257 262.5C257.828 262.5 258.5 263.172 258.5 264Z" fill="#D0D5DD"/>
<path d="M281.5 264C281.5 264.828 280.828 265.5 280 265.5C279.172 265.5 278.5 264.828 278.5 264C278.5 263.172 279.172 262.5 280 262.5C280.828 262.5 281.5 263.172 281.5 264Z" fill="#D0D5DD"/>
<path d="M304.5 264C304.5 264.828 303.828 265.5 303 265.5C302.172 265.5 301.5 264.828 301.5 264C301.5 263.172 302.172 262.5 303 262.5C303.828 262.5 304.5 263.172 304.5 264Z" fill="#D0D5DD"/>
<path d="M327.5 264C327.5 264.828 326.828 265.5 326 265.5C325.172 265.5 324.5 264.828 324.5 264C324.5 263.172 325.172 262.5 326 262.5C326.828 262.5 327.5 263.172 327.5 264Z" fill="#D0D5DD"/>
<path d="M350.5 264C350.5 264.828 349.828 265.5 349 265.5C348.172 265.5 347.5 264.828 347.5 264C347.5 263.172 348.172 262.5 349 262.5C349.828 262.5 350.5 263.172 350.5 264Z" fill="#D0D5DD"/>
<path d="M373.5 264C373.5 264.828 372.828 265.5 372 265.5C371.172 265.5 370.5 264.828 370.5 264C370.5 263.172 371.172 262.5 372 262.5C372.828 262.5 373.5 263.172 373.5 264Z" fill="#D0D5DD"/>
<path d="M396.5 264C396.5 264.828 395.828 265.5 395 265.5C394.172 265.5 393.5 264.828 393.5 264C393.5 263.172 394.172 262.5 395 262.5C395.828 262.5 396.5 263.172 396.5 264Z" fill="#D0D5DD"/>
<path d="M419.5 264C419.5 264.828 418.828 265.5 418 265.5C417.172 265.5 416.5 264.828 416.5 264C416.5 263.172 417.172 262.5 418 262.5C418.828 262.5 419.5 263.172 419.5 264Z" fill="#D0D5DD"/>
<path d="M-40.5 287C-40.5 287.828 -41.1716 288.5 -42 288.5C-42.8284 288.5 -43.5 287.828 -43.5 287C-43.5 286.172 -42.8284 285.5 -42 285.5C-41.1716 285.5 -40.5 286.172 -40.5 287Z" fill="#D0D5DD"/>
<path d="M-17.5 287C-17.5 287.828 -18.1716 288.5 -19 288.5C-19.8284 288.5 -20.5 287.828 -20.5 287C-20.5 286.172 -19.8284 285.5 -19 285.5C-18.1716 285.5 -17.5 286.172 -17.5 287Z" fill="#D0D5DD"/>
<path d="M5.5 287C5.5 287.828 4.82843 288.5 4 288.5C3.17157 288.5 2.5 287.828 2.5 287C2.5 286.172 3.17157 285.5 4 285.5C4.82843 285.5 5.5 286.172 5.5 287Z" fill="#D0D5DD"/>
<path d="M28.5 287C28.5 287.828 27.8284 288.5 27 288.5C26.1716 288.5 25.5 287.828 25.5 287C25.5 286.172 26.1716 285.5 27 285.5C27.8284 285.5 28.5 286.172 28.5 287Z" fill="#D0D5DD"/>
<path d="M51.5 287C51.5 287.828 50.8284 288.5 50 288.5C49.1716 288.5 48.5 287.828 48.5 287C48.5 286.172 49.1716 285.5 50 285.5C50.8284 285.5 51.5 286.172 51.5 287Z" fill="#D0D5DD"/>
<path d="M74.5 287C74.5 287.828 73.8284 288.5 73 288.5C72.1716 288.5 71.5 287.828 71.5 287C71.5 286.172 72.1716 285.5 73 285.5C73.8284 285.5 74.5 286.172 74.5 287Z" fill="#D0D5DD"/>
<path d="M97.5 287C97.5 287.828 96.8284 288.5 96 288.5C95.1716 288.5 94.5 287.828 94.5 287C94.5 286.172 95.1716 285.5 96 285.5C96.8284 285.5 97.5 286.172 97.5 287Z" fill="#D0D5DD"/>
<path d="M120.5 287C120.5 287.828 119.828 288.5 119 288.5C118.172 288.5 117.5 287.828 117.5 287C117.5 286.172 118.172 285.5 119 285.5C119.828 285.5 120.5 286.172 120.5 287Z" fill="#D0D5DD"/>
<path d="M143.5 287C143.5 287.828 142.828 288.5 142 288.5C141.172 288.5 140.5 287.828 140.5 287C140.5 286.172 141.172 285.5 142 285.5C142.828 285.5 143.5 286.172 143.5 287Z" fill="#D0D5DD"/>
<path d="M166.5 287C166.5 287.828 165.828 288.5 165 288.5C164.172 288.5 163.5 287.828 163.5 287C163.5 286.172 164.172 285.5 165 285.5C165.828 285.5 166.5 286.172 166.5 287Z" fill="#D0D5DD"/>
<path d="M189.5 287C189.5 287.828 188.828 288.5 188 288.5C187.172 288.5 186.5 287.828 186.5 287C186.5 286.172 187.172 285.5 188 285.5C188.828 285.5 189.5 286.172 189.5 287Z" fill="#D0D5DD"/>
<path d="M212.5 287C212.5 287.828 211.828 288.5 211 288.5C210.172 288.5 209.5 287.828 209.5 287C209.5 286.172 210.172 285.5 211 285.5C211.828 285.5 212.5 286.172 212.5 287Z" fill="#D0D5DD"/>
<path d="M235.5 287C235.5 287.828 234.828 288.5 234 288.5C233.172 288.5 232.5 287.828 232.5 287C232.5 286.172 233.172 285.5 234 285.5C234.828 285.5 235.5 286.172 235.5 287Z" fill="#D0D5DD"/>
<path d="M258.5 287C258.5 287.828 257.828 288.5 257 288.5C256.172 288.5 255.5 287.828 255.5 287C255.5 286.172 256.172 285.5 257 285.5C257.828 285.5 258.5 286.172 258.5 287Z" fill="#D0D5DD"/>
<path d="M281.5 287C281.5 287.828 280.828 288.5 280 288.5C279.172 288.5 278.5 287.828 278.5 287C278.5 286.172 279.172 285.5 280 285.5C280.828 285.5 281.5 286.172 281.5 287Z" fill="#D0D5DD"/>
<path d="M304.5 287C304.5 287.828 303.828 288.5 303 288.5C302.172 288.5 301.5 287.828 301.5 287C301.5 286.172 302.172 285.5 303 285.5C303.828 285.5 304.5 286.172 304.5 287Z" fill="#D0D5DD"/>
<path d="M327.5 287C327.5 287.828 326.828 288.5 326 288.5C325.172 288.5 324.5 287.828 324.5 287C324.5 286.172 325.172 285.5 326 285.5C326.828 285.5 327.5 286.172 327.5 287Z" fill="#D0D5DD"/>
<path d="M350.5 287C350.5 287.828 349.828 288.5 349 288.5C348.172 288.5 347.5 287.828 347.5 287C347.5 286.172 348.172 285.5 349 285.5C349.828 285.5 350.5 286.172 350.5 287Z" fill="#D0D5DD"/>
<path d="M373.5 287C373.5 287.828 372.828 288.5 372 288.5C371.172 288.5 370.5 287.828 370.5 287C370.5 286.172 371.172 285.5 372 285.5C372.828 285.5 373.5 286.172 373.5 287Z" fill="#D0D5DD"/>
<path d="M396.5 287C396.5 287.828 395.828 288.5 395 288.5C394.172 288.5 393.5 287.828 393.5 287C393.5 286.172 394.172 285.5 395 285.5C395.828 285.5 396.5 286.172 396.5 287Z" fill="#D0D5DD"/>
<path d="M419.5 287C419.5 287.828 418.828 288.5 418 288.5C417.172 288.5 416.5 287.828 416.5 287C416.5 286.172 417.172 285.5 418 285.5C418.828 285.5 419.5 286.172 419.5 287Z" fill="#D0D5DD"/>
<path d="M-40.5 310C-40.5 310.828 -41.1716 311.5 -42 311.5C-42.8284 311.5 -43.5 310.828 -43.5 310C-43.5 309.172 -42.8284 308.5 -42 308.5C-41.1716 308.5 -40.5 309.172 -40.5 310Z" fill="#D0D5DD"/>
<path d="M-17.5 310C-17.5 310.828 -18.1716 311.5 -19 311.5C-19.8284 311.5 -20.5 310.828 -20.5 310C-20.5 309.172 -19.8284 308.5 -19 308.5C-18.1716 308.5 -17.5 309.172 -17.5 310Z" fill="#D0D5DD"/>
<path d="M5.5 310C5.5 310.828 4.82843 311.5 4 311.5C3.17157 311.5 2.5 310.828 2.5 310C2.5 309.172 3.17157 308.5 4 308.5C4.82843 308.5 5.5 309.172 5.5 310Z" fill="#D0D5DD"/>
<path d="M28.5 310C28.5 310.828 27.8284 311.5 27 311.5C26.1716 311.5 25.5 310.828 25.5 310C25.5 309.172 26.1716 308.5 27 308.5C27.8284 308.5 28.5 309.172 28.5 310Z" fill="#D0D5DD"/>
<path d="M51.5 310C51.5 310.828 50.8284 311.5 50 311.5C49.1716 311.5 48.5 310.828 48.5 310C48.5 309.172 49.1716 308.5 50 308.5C50.8284 308.5 51.5 309.172 51.5 310Z" fill="#D0D5DD"/>
<path d="M74.5 310C74.5 310.828 73.8284 311.5 73 311.5C72.1716 311.5 71.5 310.828 71.5 310C71.5 309.172 72.1716 308.5 73 308.5C73.8284 308.5 74.5 309.172 74.5 310Z" fill="#D0D5DD"/>
<path d="M97.5 310C97.5 310.828 96.8284 311.5 96 311.5C95.1716 311.5 94.5 310.828 94.5 310C94.5 309.172 95.1716 308.5 96 308.5C96.8284 308.5 97.5 309.172 97.5 310Z" fill="#D0D5DD"/>
<path d="M120.5 310C120.5 310.828 119.828 311.5 119 311.5C118.172 311.5 117.5 310.828 117.5 310C117.5 309.172 118.172 308.5 119 308.5C119.828 308.5 120.5 309.172 120.5 310Z" fill="#D0D5DD"/>
<path d="M143.5 310C143.5 310.828 142.828 311.5 142 311.5C141.172 311.5 140.5 310.828 140.5 310C140.5 309.172 141.172 308.5 142 308.5C142.828 308.5 143.5 309.172 143.5 310Z" fill="#D0D5DD"/>
<path d="M166.5 310C166.5 310.828 165.828 311.5 165 311.5C164.172 311.5 163.5 310.828 163.5 310C163.5 309.172 164.172 308.5 165 308.5C165.828 308.5 166.5 309.172 166.5 310Z" fill="#D0D5DD"/>
<path d="M189.5 310C189.5 310.828 188.828 311.5 188 311.5C187.172 311.5 186.5 310.828 186.5 310C186.5 309.172 187.172 308.5 188 308.5C188.828 308.5 189.5 309.172 189.5 310Z" fill="#D0D5DD"/>
<path d="M212.5 310C212.5 310.828 211.828 311.5 211 311.5C210.172 311.5 209.5 310.828 209.5 310C209.5 309.172 210.172 308.5 211 308.5C211.828 308.5 212.5 309.172 212.5 310Z" fill="#D0D5DD"/>
<path d="M235.5 310C235.5 310.828 234.828 311.5 234 311.5C233.172 311.5 232.5 310.828 232.5 310C232.5 309.172 233.172 308.5 234 308.5C234.828 308.5 235.5 309.172 235.5 310Z" fill="#D0D5DD"/>
<path d="M258.5 310C258.5 310.828 257.828 311.5 257 311.5C256.172 311.5 255.5 310.828 255.5 310C255.5 309.172 256.172 308.5 257 308.5C257.828 308.5 258.5 309.172 258.5 310Z" fill="#D0D5DD"/>
<path d="M281.5 310C281.5 310.828 280.828 311.5 280 311.5C279.172 311.5 278.5 310.828 278.5 310C278.5 309.172 279.172 308.5 280 308.5C280.828 308.5 281.5 309.172 281.5 310Z" fill="#D0D5DD"/>
<path d="M304.5 310C304.5 310.828 303.828 311.5 303 311.5C302.172 311.5 301.5 310.828 301.5 310C301.5 309.172 302.172 308.5 303 308.5C303.828 308.5 304.5 309.172 304.5 310Z" fill="#D0D5DD"/>
<path d="M327.5 310C327.5 310.828 326.828 311.5 326 311.5C325.172 311.5 324.5 310.828 324.5 310C324.5 309.172 325.172 308.5 326 308.5C326.828 308.5 327.5 309.172 327.5 310Z" fill="#D0D5DD"/>
<path d="M350.5 310C350.5 310.828 349.828 311.5 349 311.5C348.172 311.5 347.5 310.828 347.5 310C347.5 309.172 348.172 308.5 349 308.5C349.828 308.5 350.5 309.172 350.5 310Z" fill="#D0D5DD"/>
<path d="M373.5 310C373.5 310.828 372.828 311.5 372 311.5C371.172 311.5 370.5 310.828 370.5 310C370.5 309.172 371.172 308.5 372 308.5C372.828 308.5 373.5 309.172 373.5 310Z" fill="#D0D5DD"/>
<path d="M396.5 310C396.5 310.828 395.828 311.5 395 311.5C394.172 311.5 393.5 310.828 393.5 310C393.5 309.172 394.172 308.5 395 308.5C395.828 308.5 396.5 309.172 396.5 310Z" fill="#D0D5DD"/>
<path d="M419.5 310C419.5 310.828 418.828 311.5 418 311.5C417.172 311.5 416.5 310.828 416.5 310C416.5 309.172 417.172 308.5 418 308.5C418.828 308.5 419.5 309.172 419.5 310Z" fill="#D0D5DD"/>
<path d="M-40.5 333C-40.5 333.828 -41.1716 334.5 -42 334.5C-42.8284 334.5 -43.5 333.828 -43.5 333C-43.5 332.172 -42.8284 331.5 -42 331.5C-41.1716 331.5 -40.5 332.172 -40.5 333Z" fill="#D0D5DD"/>
<path d="M-17.5 333C-17.5 333.828 -18.1716 334.5 -19 334.5C-19.8284 334.5 -20.5 333.828 -20.5 333C-20.5 332.172 -19.8284 331.5 -19 331.5C-18.1716 331.5 -17.5 332.172 -17.5 333Z" fill="#D0D5DD"/>
<path d="M5.5 333C5.5 333.828 4.82843 334.5 4 334.5C3.17157 334.5 2.5 333.828 2.5 333C2.5 332.172 3.17157 331.5 4 331.5C4.82843 331.5 5.5 332.172 5.5 333Z" fill="#D0D5DD"/>
<path d="M28.5 333C28.5 333.828 27.8284 334.5 27 334.5C26.1716 334.5 25.5 333.828 25.5 333C25.5 332.172 26.1716 331.5 27 331.5C27.8284 331.5 28.5 332.172 28.5 333Z" fill="#D0D5DD"/>
<path d="M51.5 333C51.5 333.828 50.8284 334.5 50 334.5C49.1716 334.5 48.5 333.828 48.5 333C48.5 332.172 49.1716 331.5 50 331.5C50.8284 331.5 51.5 332.172 51.5 333Z" fill="#D0D5DD"/>
<path d="M74.5 333C74.5 333.828 73.8284 334.5 73 334.5C72.1716 334.5 71.5 333.828 71.5 333C71.5 332.172 72.1716 331.5 73 331.5C73.8284 331.5 74.5 332.172 74.5 333Z" fill="#D0D5DD"/>
<path d="M97.5 333C97.5 333.828 96.8284 334.5 96 334.5C95.1716 334.5 94.5 333.828 94.5 333C94.5 332.172 95.1716 331.5 96 331.5C96.8284 331.5 97.5 332.172 97.5 333Z" fill="#D0D5DD"/>
<path d="M120.5 333C120.5 333.828 119.828 334.5 119 334.5C118.172 334.5 117.5 333.828 117.5 333C117.5 332.172 118.172 331.5 119 331.5C119.828 331.5 120.5 332.172 120.5 333Z" fill="#D0D5DD"/>
<path d="M143.5 333C143.5 333.828 142.828 334.5 142 334.5C141.172 334.5 140.5 333.828 140.5 333C140.5 332.172 141.172 331.5 142 331.5C142.828 331.5 143.5 332.172 143.5 333Z" fill="#D0D5DD"/>
<path d="M166.5 333C166.5 333.828 165.828 334.5 165 334.5C164.172 334.5 163.5 333.828 163.5 333C163.5 332.172 164.172 331.5 165 331.5C165.828 331.5 166.5 332.172 166.5 333Z" fill="#D0D5DD"/>
<path d="M189.5 333C189.5 333.828 188.828 334.5 188 334.5C187.172 334.5 186.5 333.828 186.5 333C186.5 332.172 187.172 331.5 188 331.5C188.828 331.5 189.5 332.172 189.5 333Z" fill="#D0D5DD"/>
<path d="M212.5 333C212.5 333.828 211.828 334.5 211 334.5C210.172 334.5 209.5 333.828 209.5 333C209.5 332.172 210.172 331.5 211 331.5C211.828 331.5 212.5 332.172 212.5 333Z" fill="#D0D5DD"/>
<path d="M235.5 333C235.5 333.828 234.828 334.5 234 334.5C233.172 334.5 232.5 333.828 232.5 333C232.5 332.172 233.172 331.5 234 331.5C234.828 331.5 235.5 332.172 235.5 333Z" fill="#D0D5DD"/>
<path d="M258.5 333C258.5 333.828 257.828 334.5 257 334.5C256.172 334.5 255.5 333.828 255.5 333C255.5 332.172 256.172 331.5 257 331.5C257.828 331.5 258.5 332.172 258.5 333Z" fill="#D0D5DD"/>
<path d="M281.5 333C281.5 333.828 280.828 334.5 280 334.5C279.172 334.5 278.5 333.828 278.5 333C278.5 332.172 279.172 331.5 280 331.5C280.828 331.5 281.5 332.172 281.5 333Z" fill="#D0D5DD"/>
<path d="M304.5 333C304.5 333.828 303.828 334.5 303 334.5C302.172 334.5 301.5 333.828 301.5 333C301.5 332.172 302.172 331.5 303 331.5C303.828 331.5 304.5 332.172 304.5 333Z" fill="#D0D5DD"/>
<path d="M327.5 333C327.5 333.828 326.828 334.5 326 334.5C325.172 334.5 324.5 333.828 324.5 333C324.5 332.172 325.172 331.5 326 331.5C326.828 331.5 327.5 332.172 327.5 333Z" fill="#D0D5DD"/>
<path d="M350.5 333C350.5 333.828 349.828 334.5 349 334.5C348.172 334.5 347.5 333.828 347.5 333C347.5 332.172 348.172 331.5 349 331.5C349.828 331.5 350.5 332.172 350.5 333Z" fill="#D0D5DD"/>
<path d="M373.5 333C373.5 333.828 372.828 334.5 372 334.5C371.172 334.5 370.5 333.828 370.5 333C370.5 332.172 371.172 331.5 372 331.5C372.828 331.5 373.5 332.172 373.5 333Z" fill="#D0D5DD"/>
<path d="M396.5 333C396.5 333.828 395.828 334.5 395 334.5C394.172 334.5 393.5 333.828 393.5 333C393.5 332.172 394.172 331.5 395 331.5C395.828 331.5 396.5 332.172 396.5 333Z" fill="#D0D5DD"/>
<path d="M419.5 333C419.5 333.828 418.828 334.5 418 334.5C417.172 334.5 416.5 333.828 416.5 333C416.5 332.172 417.172 331.5 418 331.5C418.828 331.5 419.5 332.172 419.5 333Z" fill="#D0D5DD"/>
<path d="M-40.5 356C-40.5 356.828 -41.1716 357.5 -42 357.5C-42.8284 357.5 -43.5 356.828 -43.5 356C-43.5 355.172 -42.8284 354.5 -42 354.5C-41.1716 354.5 -40.5 355.172 -40.5 356Z" fill="#D0D5DD"/>
<path d="M-17.5 356C-17.5 356.828 -18.1716 357.5 -19 357.5C-19.8284 357.5 -20.5 356.828 -20.5 356C-20.5 355.172 -19.8284 354.5 -19 354.5C-18.1716 354.5 -17.5 355.172 -17.5 356Z" fill="#D0D5DD"/>
<path d="M5.5 356C5.5 356.828 4.82843 357.5 4 357.5C3.17157 357.5 2.5 356.828 2.5 356C2.5 355.172 3.17157 354.5 4 354.5C4.82843 354.5 5.5 355.172 5.5 356Z" fill="#D0D5DD"/>
<path d="M28.5 356C28.5 356.828 27.8284 357.5 27 357.5C26.1716 357.5 25.5 356.828 25.5 356C25.5 355.172 26.1716 354.5 27 354.5C27.8284 354.5 28.5 355.172 28.5 356Z" fill="#D0D5DD"/>
<path d="M51.5 356C51.5 356.828 50.8284 357.5 50 357.5C49.1716 357.5 48.5 356.828 48.5 356C48.5 355.172 49.1716 354.5 50 354.5C50.8284 354.5 51.5 355.172 51.5 356Z" fill="#D0D5DD"/>
<path d="M74.5 356C74.5 356.828 73.8284 357.5 73 357.5C72.1716 357.5 71.5 356.828 71.5 356C71.5 355.172 72.1716 354.5 73 354.5C73.8284 354.5 74.5 355.172 74.5 356Z" fill="#D0D5DD"/>
<path d="M97.5 356C97.5 356.828 96.8284 357.5 96 357.5C95.1716 357.5 94.5 356.828 94.5 356C94.5 355.172 95.1716 354.5 96 354.5C96.8284 354.5 97.5 355.172 97.5 356Z" fill="#D0D5DD"/>
<path d="M120.5 356C120.5 356.828 119.828 357.5 119 357.5C118.172 357.5 117.5 356.828 117.5 356C117.5 355.172 118.172 354.5 119 354.5C119.828 354.5 120.5 355.172 120.5 356Z" fill="#D0D5DD"/>
<path d="M143.5 356C143.5 356.828 142.828 357.5 142 357.5C141.172 357.5 140.5 356.828 140.5 356C140.5 355.172 141.172 354.5 142 354.5C142.828 354.5 143.5 355.172 143.5 356Z" fill="#D0D5DD"/>
<path d="M166.5 356C166.5 356.828 165.828 357.5 165 357.5C164.172 357.5 163.5 356.828 163.5 356C163.5 355.172 164.172 354.5 165 354.5C165.828 354.5 166.5 355.172 166.5 356Z" fill="#D0D5DD"/>
<path d="M189.5 356C189.5 356.828 188.828 357.5 188 357.5C187.172 357.5 186.5 356.828 186.5 356C186.5 355.172 187.172 354.5 188 354.5C188.828 354.5 189.5 355.172 189.5 356Z" fill="#D0D5DD"/>
<path d="M212.5 356C212.5 356.828 211.828 357.5 211 357.5C210.172 357.5 209.5 356.828 209.5 356C209.5 355.172 210.172 354.5 211 354.5C211.828 354.5 212.5 355.172 212.5 356Z" fill="#D0D5DD"/>
<path d="M235.5 356C235.5 356.828 234.828 357.5 234 357.5C233.172 357.5 232.5 356.828 232.5 356C232.5 355.172 233.172 354.5 234 354.5C234.828 354.5 235.5 355.172 235.5 356Z" fill="#D0D5DD"/>
<path d="M258.5 356C258.5 356.828 257.828 357.5 257 357.5C256.172 357.5 255.5 356.828 255.5 356C255.5 355.172 256.172 354.5 257 354.5C257.828 354.5 258.5 355.172 258.5 356Z" fill="#D0D5DD"/>
<path d="M281.5 356C281.5 356.828 280.828 357.5 280 357.5C279.172 357.5 278.5 356.828 278.5 356C278.5 355.172 279.172 354.5 280 354.5C280.828 354.5 281.5 355.172 281.5 356Z" fill="#D0D5DD"/>
<path d="M304.5 356C304.5 356.828 303.828 357.5 303 357.5C302.172 357.5 301.5 356.828 301.5 356C301.5 355.172 302.172 354.5 303 354.5C303.828 354.5 304.5 355.172 304.5 356Z" fill="#D0D5DD"/>
<path d="M327.5 356C327.5 356.828 326.828 357.5 326 357.5C325.172 357.5 324.5 356.828 324.5 356C324.5 355.172 325.172 354.5 326 354.5C326.828 354.5 327.5 355.172 327.5 356Z" fill="#D0D5DD"/>
<path d="M350.5 356C350.5 356.828 349.828 357.5 349 357.5C348.172 357.5 347.5 356.828 347.5 356C347.5 355.172 348.172 354.5 349 354.5C349.828 354.5 350.5 355.172 350.5 356Z" fill="#D0D5DD"/>
<path d="M373.5 356C373.5 356.828 372.828 357.5 372 357.5C371.172 357.5 370.5 356.828 370.5 356C370.5 355.172 371.172 354.5 372 354.5C372.828 354.5 373.5 355.172 373.5 356Z" fill="#D0D5DD"/>
<path d="M396.5 356C396.5 356.828 395.828 357.5 395 357.5C394.172 357.5 393.5 356.828 393.5 356C393.5 355.172 394.172 354.5 395 354.5C395.828 354.5 396.5 355.172 396.5 356Z" fill="#D0D5DD"/>
<path d="M419.5 356C419.5 356.828 418.828 357.5 418 357.5C417.172 357.5 416.5 356.828 416.5 356C416.5 355.172 417.172 354.5 418 354.5C418.828 354.5 419.5 355.172 419.5 356Z" fill="#D0D5DD"/>
<path d="M-40.5 379C-40.5 379.828 -41.1716 380.5 -42 380.5C-42.8284 380.5 -43.5 379.828 -43.5 379C-43.5 378.172 -42.8284 377.5 -42 377.5C-41.1716 377.5 -40.5 378.172 -40.5 379Z" fill="#D0D5DD"/>
<path d="M-17.5 379C-17.5 379.828 -18.1716 380.5 -19 380.5C-19.8284 380.5 -20.5 379.828 -20.5 379C-20.5 378.172 -19.8284 377.5 -19 377.5C-18.1716 377.5 -17.5 378.172 -17.5 379Z" fill="#D0D5DD"/>
<path d="M5.5 379C5.5 379.828 4.82843 380.5 4 380.5C3.17157 380.5 2.5 379.828 2.5 379C2.5 378.172 3.17157 377.5 4 377.5C4.82843 377.5 5.5 378.172 5.5 379Z" fill="#D0D5DD"/>
<path d="M28.5 379C28.5 379.828 27.8284 380.5 27 380.5C26.1716 380.5 25.5 379.828 25.5 379C25.5 378.172 26.1716 377.5 27 377.5C27.8284 377.5 28.5 378.172 28.5 379Z" fill="#D0D5DD"/>
<path d="M51.5 379C51.5 379.828 50.8284 380.5 50 380.5C49.1716 380.5 48.5 379.828 48.5 379C48.5 378.172 49.1716 377.5 50 377.5C50.8284 377.5 51.5 378.172 51.5 379Z" fill="#D0D5DD"/>
<path d="M74.5 379C74.5 379.828 73.8284 380.5 73 380.5C72.1716 380.5 71.5 379.828 71.5 379C71.5 378.172 72.1716 377.5 73 377.5C73.8284 377.5 74.5 378.172 74.5 379Z" fill="#D0D5DD"/>
<path d="M97.5 379C97.5 379.828 96.8284 380.5 96 380.5C95.1716 380.5 94.5 379.828 94.5 379C94.5 378.172 95.1716 377.5 96 377.5C96.8284 377.5 97.5 378.172 97.5 379Z" fill="#D0D5DD"/>
<path d="M120.5 379C120.5 379.828 119.828 380.5 119 380.5C118.172 380.5 117.5 379.828 117.5 379C117.5 378.172 118.172 377.5 119 377.5C119.828 377.5 120.5 378.172 120.5 379Z" fill="#D0D5DD"/>
<path d="M143.5 379C143.5 379.828 142.828 380.5 142 380.5C141.172 380.5 140.5 379.828 140.5 379C140.5 378.172 141.172 377.5 142 377.5C142.828 377.5 143.5 378.172 143.5 379Z" fill="#D0D5DD"/>
<path d="M166.5 379C166.5 379.828 165.828 380.5 165 380.5C164.172 380.5 163.5 379.828 163.5 379C163.5 378.172 164.172 377.5 165 377.5C165.828 377.5 166.5 378.172 166.5 379Z" fill="#D0D5DD"/>
<path d="M189.5 379C189.5 379.828 188.828 380.5 188 380.5C187.172 380.5 186.5 379.828 186.5 379C186.5 378.172 187.172 377.5 188 377.5C188.828 377.5 189.5 378.172 189.5 379Z" fill="#D0D5DD"/>
<path d="M212.5 379C212.5 379.828 211.828 380.5 211 380.5C210.172 380.5 209.5 379.828 209.5 379C209.5 378.172 210.172 377.5 211 377.5C211.828 377.5 212.5 378.172 212.5 379Z" fill="#D0D5DD"/>
<path d="M235.5 379C235.5 379.828 234.828 380.5 234 380.5C233.172 380.5 232.5 379.828 232.5 379C232.5 378.172 233.172 377.5 234 377.5C234.828 377.5 235.5 378.172 235.5 379Z" fill="#D0D5DD"/>
<path d="M258.5 379C258.5 379.828 257.828 380.5 257 380.5C256.172 380.5 255.5 379.828 255.5 379C255.5 378.172 256.172 377.5 257 377.5C257.828 377.5 258.5 378.172 258.5 379Z" fill="#D0D5DD"/>
<path d="M281.5 379C281.5 379.828 280.828 380.5 280 380.5C279.172 380.5 278.5 379.828 278.5 379C278.5 378.172 279.172 377.5 280 377.5C280.828 377.5 281.5 378.172 281.5 379Z" fill="#D0D5DD"/>
<path d="M304.5 379C304.5 379.828 303.828 380.5 303 380.5C302.172 380.5 301.5 379.828 301.5 379C301.5 378.172 302.172 377.5 303 377.5C303.828 377.5 304.5 378.172 304.5 379Z" fill="#D0D5DD"/>
<path d="M327.5 379C327.5 379.828 326.828 380.5 326 380.5C325.172 380.5 324.5 379.828 324.5 379C324.5 378.172 325.172 377.5 326 377.5C326.828 377.5 327.5 378.172 327.5 379Z" fill="#D0D5DD"/>
<path d="M350.5 379C350.5 379.828 349.828 380.5 349 380.5C348.172 380.5 347.5 379.828 347.5 379C347.5 378.172 348.172 377.5 349 377.5C349.828 377.5 350.5 378.172 350.5 379Z" fill="#D0D5DD"/>
<path d="M373.5 379C373.5 379.828 372.828 380.5 372 380.5C371.172 380.5 370.5 379.828 370.5 379C370.5 378.172 371.172 377.5 372 377.5C372.828 377.5 373.5 378.172 373.5 379Z" fill="#D0D5DD"/>
<path d="M396.5 379C396.5 379.828 395.828 380.5 395 380.5C394.172 380.5 393.5 379.828 393.5 379C393.5 378.172 394.172 377.5 395 377.5C395.828 377.5 396.5 378.172 396.5 379Z" fill="#D0D5DD"/>
<path d="M419.5 379C419.5 379.828 418.828 380.5 418 380.5C417.172 380.5 416.5 379.828 416.5 379C416.5 378.172 417.172 377.5 418 377.5C418.828 377.5 419.5 378.172 419.5 379Z" fill="#D0D5DD"/>
</g>
<defs>
<radialGradient id="paint0_radial_1474_58368" cx="0" cy="0" r="1" gradientUnits="userSpaceOnUse" gradientTransform="translate(240 240) rotate(90) scale(240 240)">
<stop/>
<stop offset="1" stop-opacity="0"/>
</radialGradient>
</defs>
</svg>
