<svg width="14" height="18" viewBox="0 0 14 18" fill="none" xmlns="http://www.w3.org/2000/svg">
<path d="M12.5 7.00009C12.5 11.5001 7 16.5001 7 16.5001C7 16.5001 1.5 11.5001 1.5 7.00009C1.5 5.5414 2.07946 4.14245 3.11091 3.111C4.14236 2.07955 5.54131 1.50009 7 1.50009C8.45869 1.50009 9.85764 2.07955 10.8891 3.111C11.9205 4.14245 12.5 5.5414 12.5 7.00009Z" stroke="#475467" stroke-width="1.5" stroke-linecap="round" stroke-linejoin="round"/>
<path d="M7 9.50018C8.38071 9.50018 9.5 8.3809 9.5 7.00018C9.5 5.61947 8.38071 4.50018 7 4.50018C5.61929 4.50018 4.5 5.61947 4.5 7.00018C4.5 8.3809 5.61929 9.50018 7 9.50018Z" stroke="#475467" stroke-width="1.5" stroke-linecap="round" stroke-linejoin="round"/>
</svg>
