<svg width="16" height="16" viewBox="0 0 16 16" fill="none" xmlns="http://www.w3.org/2000/svg">
<path d="M8.00065 8.66602C8.36884 8.66602 8.66732 8.36754 8.66732 7.99935C8.66732 7.63116 8.36884 7.33268 8.00065 7.33268C7.63246 7.33268 7.33398 7.63116 7.33398 7.99935C7.33398 8.36754 7.63246 8.66602 8.00065 8.66602Z" stroke="#697586" stroke-width="1.33333" stroke-linecap="round" stroke-linejoin="round"/>
<path d="M8.00065 3.99935C8.36884 3.99935 8.66732 3.70087 8.66732 3.33268C8.66732 2.96449 8.36884 2.66602 8.00065 2.66602C7.63246 2.66602 7.33398 2.96449 7.33398 3.33268C7.33398 3.70087 7.63246 3.99935 8.00065 3.99935Z" stroke="#697586" stroke-width="1.33333" stroke-linecap="round" stroke-linejoin="round"/>
<path d="M8.00065 13.3327C8.36884 13.3327 8.66732 13.0342 8.66732 12.666C8.66732 12.2978 8.36884 11.9993 8.00065 11.9993C7.63246 11.9993 7.33398 12.2978 7.33398 12.666C7.33398 13.0342 7.63246 13.3327 8.00065 13.3327Z" stroke="#697586" stroke-width="1.33333" stroke-linecap="round" stroke-linejoin="round"/>
</svg>
