<svg width="41" height="42" viewBox="0 0 41 42" fill="none" xmlns="http://www.w3.org/2000/svg">
<path d="M35.5568 2.88281L37.4131 11.8176C37.5711 12.5781 36.8395 13.2206 36.1058 12.9657L27.2852 9.90115" stroke="#475467" stroke-width="4" stroke-miterlimit="10" stroke-linecap="round"/>
<path d="M36.772 12.545C34.7067 8.5663 31.2552 5.48219 27.0701 3.87577C22.885 2.26935 18.2564 2.25197 14.0593 3.82691C9.86229 5.40185 6.38773 8.45995 4.29259 12.423C2.19744 16.3861 1.62692 20.9795 2.68889 25.3347C3.75087 29.6899 6.37173 33.5051 10.056 36.0589C13.7402 38.6127 18.2324 39.7282 22.6833 39.1944C27.1343 38.6607 31.2354 36.5146 34.2113 33.1621C37.1872 29.8095 38.8316 25.4828 38.8337 21" stroke="#475467" stroke-width="4" stroke-miterlimit="10" stroke-linecap="round"/>
</svg>
