<svg width="44" height="44" viewBox="0 0 44 44" fill="none" xmlns="http://www.w3.org/2000/svg">
<g filter="url(#filter0_d_339_12466)">
<rect x="2" y="1" width="40" height="40" rx="8" fill="white"/>
<path d="M18.6665 24.3333L21.9998 21M21.9998 21L25.3332 24.3333M21.9998 21V28.5M28.6665 24.9524C29.6844 24.1117 30.3332 22.8399 30.3332 21.4167C30.3332 18.8854 28.2811 16.8333 25.7498 16.8333C25.5677 16.8333 25.3974 16.7383 25.3049 16.5814C24.2182 14.7374 22.2119 13.5 19.9165 13.5C16.4647 13.5 13.6665 16.2982 13.6665 19.75C13.6665 21.4718 14.3627 23.0309 15.489 24.1613" stroke="#475467" stroke-width="1.66667" stroke-linecap="round" stroke-linejoin="round"/>
<rect x="2.5" y="1.5" width="39" height="39" rx="7.5" stroke="#EAECF0"/>
</g>
<defs>
<filter id="filter0_d_339_12466" x="0" y="0" width="44" height="44" filterUnits="userSpaceOnUse" color-interpolation-filters="sRGB">
<feFlood flood-opacity="0" result="BackgroundImageFix"/>
<feColorMatrix in="SourceAlpha" type="matrix" values="0 0 0 0 0 0 0 0 0 0 0 0 0 0 0 0 0 0 127 0" result="hardAlpha"/>
<feOffset dy="1"/>
<feGaussianBlur stdDeviation="1"/>
<feColorMatrix type="matrix" values="0 0 0 0 0.0627451 0 0 0 0 0.0941176 0 0 0 0 0.156863 0 0 0 0.05 0"/>
<feBlend mode="normal" in2="BackgroundImageFix" result="effect1_dropShadow_339_12466"/>
<feBlend mode="normal" in="SourceGraphic" in2="effect1_dropShadow_339_12466" result="shape"/>
</filter>
</defs>
</svg>
