<svg width="45" height="44" viewBox="0 0 45 44" fill="none" xmlns="http://www.w3.org/2000/svg">
<g filter="url(#filter0_d_1141_4826)">
<rect x="2.66699" y="1" width="40" height="40" rx="8" fill="white"/>
<path d="M19.334 24.3333L22.6673 21M22.6673 21L26.0007 24.3333M22.6673 21V28.5M29.334 24.9524C30.3519 24.1117 31.0007 22.8399 31.0007 21.4167C31.0007 18.8854 28.9486 16.8333 26.4173 16.8333C26.2352 16.8333 26.0649 16.7383 25.9724 16.5814C24.8857 14.7374 22.8793 13.5 20.584 13.5C17.1322 13.5 14.334 16.2982 14.334 19.75C14.334 21.4718 15.0302 23.0309 16.1564 24.1613" stroke="#475467" stroke-width="1.66667" stroke-linecap="round" stroke-linejoin="round"/>
<rect x="3.16699" y="1.5" width="39" height="39" rx="7.5" stroke="#EAECF0"/>
</g>
<defs>
<filter id="filter0_d_1141_4826" x="0.666992" y="0" width="44" height="44" filterUnits="userSpaceOnUse" color-interpolation-filters="sRGB">
<feFlood flood-opacity="0" result="BackgroundImageFix"/>
<feColorMatrix in="SourceAlpha" type="matrix" values="0 0 0 0 0 0 0 0 0 0 0 0 0 0 0 0 0 0 127 0" result="hardAlpha"/>
<feOffset dy="1"/>
<feGaussianBlur stdDeviation="1"/>
<feColorMatrix type="matrix" values="0 0 0 0 0.0627451 0 0 0 0 0.0941176 0 0 0 0 0.156863 0 0 0 0.05 0"/>
<feBlend mode="normal" in2="BackgroundImageFix" result="effect1_dropShadow_1141_4826"/>
<feBlend mode="normal" in="SourceGraphic" in2="effect1_dropShadow_1141_4826" result="shape"/>
</filter>
</defs>
</svg>
