<svg width="48" height="48" viewBox="0 0 48 48" fill="none" xmlns="http://www.w3.org/2000/svg">
<circle cx="24" cy="24" r="24" fill="#FDE8E9"/>
<circle cx="23.9973" cy="24.0002" r="16.8" fill="#F9B8BB"/>
<path d="M23.4375 22.1341V24.9341" stroke="#900F15" stroke-width="1.584" stroke-linecap="round" stroke-linejoin="round"/>
<path d="M22.3762 17.1417L15.6242 28.7068C15.5161 28.8919 15.4592 29.1019 15.459 29.3157C15.4588 29.5295 15.5154 29.7396 15.6232 29.9249C15.7309 30.1101 15.8859 30.2639 16.0727 30.3709C16.2594 30.4779 16.4713 30.5342 16.687 30.5342H30.191C30.4067 30.5342 30.6185 30.4779 30.8053 30.3709C30.992 30.2639 31.1471 30.1101 31.2548 29.9249C31.3625 29.7396 31.4192 29.5295 31.419 29.3157C31.4188 29.1019 31.3618 28.8919 31.2538 28.7068L24.5018 17.1417C24.3939 16.957 24.2389 16.8036 24.0524 16.697C23.8658 16.5903 23.6543 16.5342 23.439 16.5342C23.2237 16.5342 23.0121 16.5903 22.8256 16.697C22.639 16.8036 22.4841 16.957 22.3762 17.1417V17.1417Z" stroke="#900F15" stroke-width="1.584" stroke-linecap="round" stroke-linejoin="round"/>
<path d="M23.4394 28.6674C23.9291 28.6674 24.3261 28.2496 24.3261 27.7341C24.3261 27.2186 23.9291 26.8008 23.4394 26.8008C22.9497 26.8008 22.5527 27.2186 22.5527 27.7341C22.5527 28.2496 22.9497 28.6674 23.4394 28.6674Z" fill="#900F15"/>
</svg>
