<svg width="48" height="48" viewBox="0 0 48 48" fill="none" xmlns="http://www.w3.org/2000/svg">
<circle cx="24" cy="24" r="24" fill="#FDE8E9"/>
<circle cx="23.9973" cy="24.0002" r="16.8" fill="#F9B8BB"/>
<path d="M23.4395 22.1337V24.9337" stroke="#900F15" stroke-width="1.584" stroke-linecap="round" stroke-linejoin="round"/>
<path d="M22.3762 17.1412L15.6242 28.7063C15.5161 28.8913 15.4592 29.1013 15.459 29.3151C15.4588 29.529 15.5154 29.7391 15.6232 29.9243C15.7309 30.1095 15.8859 30.2634 16.0727 30.3703C16.2594 30.4773 16.4713 30.5336 16.687 30.5336H30.191C30.4067 30.5336 30.6185 30.4773 30.8053 30.3703C30.992 30.2634 31.1471 30.1095 31.2548 29.9243C31.3625 29.7391 31.4192 29.529 31.419 29.3151C31.4188 29.1013 31.3618 28.8913 31.2538 28.7063L24.5018 17.1412C24.3939 16.9564 24.2389 16.803 24.0524 16.6964C23.8658 16.5897 23.6543 16.5336 23.439 16.5336C23.2237 16.5336 23.0121 16.5897 22.8256 16.6964C22.639 16.803 22.4841 16.9564 22.3762 17.1412V17.1412Z" stroke="#900F15" stroke-width="1.584" stroke-linecap="round" stroke-linejoin="round"/>
<path d="M23.4374 28.6669C23.9271 28.6669 24.3241 28.249 24.3241 27.7336C24.3241 27.2181 23.9271 26.8002 23.4374 26.8002C22.9478 26.8002 22.5508 27.2181 22.5508 27.7336C22.5508 28.249 22.9478 28.6669 23.4374 28.6669Z" fill="#900F15"/>
</svg>
